<svg width="40" height="40" viewBox="0 0 40 40" fill="none" xmlns="http://www.w3.org/2000/svg">
<path d="M33 32H7C6.45 32 6 32.45 6 33V35C6 35.55 6.45 36 7 36H33C33.55 36 34 35.55 34 35V33C34 32.45 33.55 32 33 32ZM37 12C35.3438 12 34 13.3438 34 15C34 15.4438 34.1 15.8563 34.275 16.2375L29.75 18.95C28.7875 19.525 27.5437 19.2 26.9875 18.225L21.8937 9.3125C22.5625 8.7625 23 7.9375 23 7C23 5.34375 21.6562 4 20 4C18.3438 4 17 5.34375 17 7C17 7.9375 17.4375 8.7625 18.1063 9.3125L13.0125 18.225C12.4562 19.2 11.2063 19.525 10.25 18.95L5.73125 16.2375C5.9 15.8625 6.00625 15.4438 6.00625 15C6.00625 13.3438 4.6625 12 3.00625 12C1.35 12 0 13.3438 0 15C0 16.6563 1.34375 18 3 18C3.1625 18 3.325 17.975 3.48125 17.95L8 30H32L36.5187 17.95C36.675 17.975 36.8375 18 37 18C38.6562 18 40 16.6563 40 15C40 13.3438 38.6562 12 37 12Z" fill="#11181C"/>
</svg>
