<svg width="33" height="33" viewBox="0 0 33 33" fill="none" xmlns="http://www.w3.org/2000/svg">
<g clip-path="url(#clip0_169_5701)">
<path d="M26.9 26.1002H6.1C5.66 26.1002 5.3 26.4602 5.3 26.9002V28.5002C5.3 28.9402 5.66 29.3002 6.1 29.3002H26.9C27.34 29.3002 27.7 28.9402 27.7 28.5002V26.9002C27.7 26.4602 27.34 26.1002 26.9 26.1002ZM30.1 10.1002C28.775 10.1002 27.7 11.1752 27.7 12.5002C27.7 12.8552 27.78 13.1852 27.92 13.4902L24.3 15.6602C23.53 16.1202 22.535 15.8602 22.09 15.0802L18.015 7.9502C18.55 7.5102 18.9 6.8502 18.9 6.1002C18.9 4.7752 17.825 3.7002 16.5 3.7002C15.175 3.7002 14.1 4.7752 14.1 6.1002C14.1 6.8502 14.45 7.5102 14.985 7.9502L10.91 15.0802C10.465 15.8602 9.465 16.1202 8.7 15.6602L5.085 13.4902C5.22 13.1902 5.305 12.8552 5.305 12.5002C5.305 11.1752 4.23 10.1002 2.905 10.1002C1.58 10.1002 0.5 11.1752 0.5 12.5002C0.5 13.8252 1.575 14.9002 2.9 14.9002C3.03 14.9002 3.16 14.8802 3.285 14.8602L6.9 24.5002H26.1L29.715 14.8602C29.84 14.8802 29.97 14.9002 30.1 14.9002C31.425 14.9002 32.5 13.8252 32.5 12.5002C32.5 11.1752 31.425 10.1002 30.1 10.1002Z" fill="#A07653"/>
</g>
<defs>
<clipPath id="clip0_169_5701">
<rect width="32" height="32" fill="white" transform="translate(0.5 0.5)"/>
</clipPath>
</defs>
</svg>
