<svg width="40" height="41" viewBox="0 0 40 41" fill="none" xmlns="http://www.w3.org/2000/svg">
<path d="M33 32.5H7C6.45 32.5 6 32.95 6 33.5V35.5C6 36.05 6.45 36.5 7 36.5H33C33.55 36.5 34 36.05 34 35.5V33.5C34 32.95 33.55 32.5 33 32.5ZM37 12.5C35.3438 12.5 34 13.8438 34 15.5C34 15.9438 34.1 16.3563 34.275 16.7375L29.75 19.45C28.7875 20.025 27.5437 19.7 26.9875 18.725L21.8937 9.8125C22.5625 9.2625 23 8.4375 23 7.5C23 5.84375 21.6562 4.5 20 4.5C18.3438 4.5 17 5.84375 17 7.5C17 8.4375 17.4375 9.2625 18.1063 9.8125L13.0125 18.725C12.4563 19.7 11.2063 20.025 10.25 19.45L5.73125 16.7375C5.9 16.3625 6.00625 15.9438 6.00625 15.5C6.00625 13.8438 4.6625 12.5 3.00625 12.5C1.35 12.5 0 13.8438 0 15.5C0 17.1563 1.34375 18.5 3 18.5C3.1625 18.5 3.325 18.475 3.48125 18.45L8 30.5H32L36.5187 18.45C36.675 18.475 36.8375 18.5 37 18.5C38.6562 18.5 40 17.1563 40 15.5C40 13.8438 38.6562 12.5 37 12.5Z" fill="#FFA01C"/>
</svg>
