<svg width="370" height="700" viewBox="0 0 370 700" fill="none" xmlns="http://www.w3.org/2000/svg">
<g filter="url(#filter0_dd_87_1526)">
<g clip-path="url(#clip0_87_1526)">
<rect x="-107.829" y="468.085" width="98.5449" height="146.96" rx="6.8553" transform="rotate(-27.9334 -107.829 468.085)" fill="white"/>
<g clip-path="url(#clip1_87_1526)">
<rect x="-96.2441" y="471.641" width="81.4066" height="129.822" rx="3.42765" transform="rotate(-27.9334 -96.2441 471.641)" fill="#E54D2E"/>
<path d="M21.5863 537.025L20.9522 537.344C20.3526 537.662 19.9089 538.054 19.621 538.521C19.338 538.997 19.2446 539.611 19.3407 540.363C19.7691 539.81 20.3195 539.356 20.9917 538.999C21.8911 538.522 22.7499 538.364 23.5679 538.524C24.3907 538.693 25.0213 539.19 25.4596 540.017C25.898 540.844 26.0346 541.65 25.8693 542.436C25.5554 543.929 24.4627 545.172 22.5912 546.165C20.7742 547.128 19.157 547.403 17.7396 546.991C17.2439 546.847 16.7706 546.58 16.3197 546.19C15.8597 545.806 15.4515 545.277 15.0951 544.605C14.7386 543.933 14.5235 543.209 14.4498 542.433C14.3718 541.671 14.4608 540.873 14.7169 540.039C14.9778 539.214 15.5006 538.378 16.2854 537.532C17.0702 536.685 18.1001 535.894 19.3751 535.16L19.5659 535.059C19.8021 534.934 20.091 534.798 20.4325 534.652C20.7601 534.501 21.0918 534.523 21.4277 534.718C21.7544 534.917 22.0117 535.194 22.1996 535.548C22.3923 535.911 22.4245 536.203 22.2964 536.422C22.1591 536.646 21.9224 536.847 21.5863 537.025ZM21.7061 542.618C21.523 542.273 21.3008 542.019 21.0393 541.855C20.7777 541.691 20.5334 541.669 20.3063 541.789C20.084 541.919 19.9716 542.124 19.9691 542.405C19.9714 542.694 20.0665 543.016 20.2544 543.371C20.4422 543.725 20.6642 543.968 20.9204 544.1C21.1723 544.246 21.3981 544.266 21.598 544.16C21.7888 544.059 21.8991 543.86 21.9288 543.565C21.9634 543.279 21.8891 542.964 21.7061 542.618Z" fill="white" fill-opacity="0.923"/>
<path d="M22.2609 532.338L10.7731 538.429L10.4118 537.748L21.8997 531.657L22.2609 532.338Z" fill="white" fill-opacity="0.923"/>
<ellipse cx="-29.9084" cy="509.981" rx="30.8488" ry="51.4147" transform="rotate(7.12742 -29.9084 509.981)" fill="white" fill-opacity="0.923"/>
<path d="M-34.9219 528.078L-32.6673 526.945C-30.5354 525.814 -28.9577 524.419 -27.9343 522.759C-26.9279 521.067 -26.5957 518.883 -26.9377 516.209C-28.4608 518.176 -30.4176 519.793 -32.8079 521.06C-36.0058 522.756 -39.059 523.319 -41.9675 522.751C-44.8931 522.15 -47.1352 520.38 -48.6938 517.44C-50.2523 514.501 -50.7379 511.634 -50.1504 508.84C-49.0342 503.53 -45.149 499.111 -38.4949 495.583C-32.0345 492.158 -26.2844 491.178 -21.2446 492.644C-19.4823 493.158 -17.7995 494.107 -16.1963 495.492C-14.5608 496.86 -13.1093 498.738 -11.8419 501.129C-10.5745 503.519 -9.80976 506.093 -9.54762 508.851C-9.27031 511.559 -9.58689 514.396 -10.4974 517.362C-11.425 520.296 -13.284 523.268 -16.0743 526.278C-18.8646 529.289 -22.5265 532.1 -27.06 534.71L-27.7383 535.07C-28.5782 535.515 -29.6052 535.998 -30.8195 536.517C-31.9843 537.052 -33.1638 536.974 -34.3579 536.283C-35.5197 535.575 -36.4346 534.591 -37.1025 533.331C-37.7876 532.039 -37.9023 531.003 -37.4466 530.224C-36.9586 529.427 -36.117 528.712 -34.9219 528.078ZM-35.3478 508.192C-34.697 509.419 -33.9067 510.324 -32.9768 510.907C-32.047 511.49 -31.1783 511.568 -30.3708 511.139C-29.5803 510.679 -29.1807 509.95 -29.1718 508.952C-29.1801 507.922 -29.5182 506.777 -30.1861 505.517C-30.8541 504.257 -31.6434 503.393 -32.5542 502.924C-33.4498 502.405 -34.2529 502.335 -34.9635 502.712C-35.6419 503.071 -36.0339 503.776 -36.1397 504.825C-36.2626 505.842 -35.9986 506.964 -35.3478 508.192Z" fill="#E54D2E"/>
<path d="M-37.3206 544.744L3.52518 523.087L4.80972 525.51L-36.036 547.167L-37.3206 544.744Z" fill="#E54D2E"/>
</g>
</g>
<rect x="-107.25" y="468.262" width="97.688" height="146.104" rx="6.42684" transform="rotate(-27.9334 -107.25 468.262)" stroke="#D7DBDF" stroke-width="0.856912"/>
<g clip-path="url(#clip2_87_1526)">
<rect x="-27.7434" y="619.127" width="98.5449" height="146.96" rx="6.8553" transform="rotate(-27.9334 -27.7434 619.127)" fill="white"/>
<g clip-path="url(#clip3_87_1526)">
<rect x="-16.1585" y="622.683" width="81.4066" height="129.822" rx="3.42765" transform="rotate(-27.9334 -16.1585 622.683)" fill="#11181C"/>
<mask id="mask0_87_1526" style="mask-type:alpha" maskUnits="userSpaceOnUse" x="-4" y="621" width="9" height="14">
<ellipse cx="0.64691" cy="628.322" rx="3.97806" ry="6.63011" transform="rotate(7.12742 0.64691 628.322)" fill="white"/>
</mask>
<g mask="url(#mask0_87_1526)">
<path d="M-5.52193 631.608L0.458704 628.437L-1.40512 638.599L-11.7306 636.705L-5.52193 631.608Z" fill="#FFB224"/>
<path d="M-3.51152 630.563L0.467706 628.453L4.18101 615.467L-3.7287 625.79L-3.51152 630.563Z" fill="#E54D2E"/>
<path d="M0.460566 628.446L8.95584 623.942L8.92219 640.503L-1.40326 638.609L0.460566 628.446Z" fill="#30A46C"/>
<path d="M0.469202 628.463L8.96448 623.958L9.45365 611.671L3.32685 613.856L0.469202 628.463Z" fill="#3E63DD"/>
</g>
<mask id="mask1_87_1526" style="mask-type:alpha" maskUnits="userSpaceOnUse" x="95" y="687" width="9" height="14">
<ellipse cx="99.7727" cy="693.608" rx="3.97806" ry="6.63011" transform="rotate(7.12742 99.7727 693.608)" fill="white"/>
</mask>
<g mask="url(#mask1_87_1526)">
<path d="M93.6039 696.894L99.5845 693.723L97.7207 703.885L87.3953 701.991L93.6039 696.894Z" fill="#FFB224"/>
<path d="M95.6143 695.849L99.5935 693.74L103.307 680.753L95.3971 691.076L95.6143 695.849Z" fill="#E54D2E"/>
<path d="M99.5864 693.733L108.082 689.228L108.048 705.789L97.7226 703.895L99.5864 693.733Z" fill="#30A46C"/>
<path d="M99.595 693.749L108.09 689.244L108.579 676.957L102.453 679.143L99.595 693.749Z" fill="#3E63DD"/>
</g>
<ellipse cx="50.1772" cy="661.023" rx="30.8488" ry="51.4147" transform="rotate(7.12742 50.1772 661.023)" fill="white"/>
<mask id="mask2_87_1526" style="mask-type:alpha" maskUnits="userSpaceOnUse" x="18" y="609" width="64" height="104">
<ellipse cx="50.1772" cy="661.023" rx="30.8488" ry="51.4147" transform="rotate(7.12742 50.1772 661.023)" fill="white"/>
</mask>
<g mask="url(#mask2_87_1526)">
<path d="M2.33952 686.505L48.7177 661.914L34.2643 740.721L-45.8068 726.035L2.33952 686.505Z" fill="#FFB224"/>
<path d="M17.9297 678.407L48.7875 662.046L77.5832 561.341L16.2455 641.389L17.9297 678.407Z" fill="#E54D2E"/>
<path d="M48.7322 661.991L114.611 627.061L114.35 755.483L34.2787 740.797L48.7322 661.991Z" fill="#30A46C"/>
<path d="M48.7991 662.117L114.678 627.187L118.471 531.902L70.9594 548.849L48.7991 662.117Z" fill="#3E63DD"/>
</g>
</g>
</g>
<rect x="-27.1642" y="619.305" width="97.688" height="146.104" rx="6.42684" transform="rotate(-27.9334 -27.1642 619.305)" stroke="#D7DBDF" stroke-width="0.856912"/>
<g clip-path="url(#clip4_87_1526)">
<rect x="-139.662" y="146.448" width="98.5449" height="146.96" rx="6.8553" transform="rotate(-27.9334 -139.662 146.448)" fill="white"/>
<g clip-path="url(#clip5_87_1526)">
<rect x="-128.077" y="150.005" width="81.4066" height="129.822" rx="3.42765" transform="rotate(-27.9334 -128.077 150.005)" fill="#3E63DD"/>
</g>
</g>
<rect x="-139.082" y="146.626" width="97.688" height="146.104" rx="6.42684" transform="rotate(-27.9334 -139.082 146.626)" stroke="#D7DBDF" stroke-width="0.856912"/>
<g clip-path="url(#clip6_87_1526)">
<rect x="-59.5762" y="297.491" width="98.5449" height="146.96" rx="6.8553" transform="rotate(-27.9334 -59.5762 297.491)" fill="white"/>
<g clip-path="url(#clip7_87_1526)">
<rect x="-47.9912" y="301.047" width="81.4066" height="129.822" rx="3.42765" transform="rotate(-27.9334 -47.9912 301.047)" fill="#30A46C"/>
<path d="M70.3926 364.183L70.9126 364.867C70.9741 364.939 71.0266 365.016 71.0699 365.098C71.2289 365.398 71.236 365.696 71.0913 365.994C70.5121 367.163 70.0613 368.321 69.7392 369.47C69.4079 370.623 69.3772 371.454 69.6469 371.963C69.8348 372.317 70.1001 372.543 70.4428 372.641C70.7904 372.747 71.1095 372.724 71.4002 372.57C72.0634 372.218 72.5506 371.622 72.8617 370.782C72.9044 370.643 72.9965 370.553 73.1382 370.513C73.5813 370.383 74.0148 370.718 74.4387 371.517C74.5832 371.79 74.6373 372.035 74.6011 372.252C74.5558 372.473 74.4263 372.734 74.2127 373.034C73.3575 374.209 72.1896 375.189 70.7087 375.974C69.2188 376.764 67.9732 377.093 66.9718 376.96C65.9753 376.837 65.2626 376.371 64.8339 375.562C64.4052 374.754 64.2454 373.936 64.3544 373.11C64.4544 372.289 64.7572 371.291 65.2627 370.115C65.3764 369.868 65.3995 369.681 65.3321 369.554C65.2502 369.4 65.0821 369.39 64.8277 369.525C64.8095 369.535 64.7914 369.544 64.7732 369.554L61.8811 371.244C61.872 371.249 61.8629 371.254 61.8538 371.259C61.6994 371.341 61.5238 371.306 61.3269 371.154C61.1349 371.012 60.9378 370.749 60.7354 370.368C60.538 369.995 60.4354 369.648 60.4277 369.326C60.4248 369.014 60.6117 368.752 60.9885 368.54C62.3186 367.8 63.6378 367.083 64.946 366.39C66.2451 365.701 67.2902 365.158 68.0811 364.762C68.8721 364.366 69.3129 364.144 69.4038 364.096C69.4904 364.061 69.609 364.022 69.7598 363.977C69.9014 363.937 70.0209 363.932 70.1182 363.961C70.2112 364.005 70.3027 364.079 70.3926 364.183Z" fill="white" fill-opacity="0.923"/>
<path d="M70.5137 361.744L58.9032 367.9L58.5419 367.219L70.1524 361.063L70.5137 361.744Z" fill="white" fill-opacity="0.923"/>
<ellipse cx="18.3444" cy="339.387" rx="30.8488" ry="51.4147" transform="rotate(7.12742 18.3444 339.387)" fill="white" fill-opacity="0.923"/>
<path d="M11.1501 365.593L9.30101 363.159C9.08226 362.902 8.89581 362.629 8.74167 362.338C8.17648 361.272 8.1511 360.21 8.66553 359.151C10.7252 354.996 12.3278 350.877 13.4733 346.794C14.6511 342.693 14.7604 339.738 13.8013 337.929C13.1333 336.67 12.19 335.866 10.9714 335.519C9.73572 335.14 8.60103 335.224 7.56737 335.772C5.20933 337.022 3.47718 339.141 2.37093 342.128C2.21918 342.622 1.89151 342.94 1.3879 343.083C-0.187528 343.546 -1.72883 342.356 -3.23602 339.514C-3.74983 338.545 -3.94235 337.674 -3.81359 336.903C-3.65252 336.114 -3.19218 335.187 -2.43255 334.122C0.607913 329.944 4.76075 326.459 10.026 323.668C15.3235 320.859 19.7524 319.69 23.3128 320.161C26.8561 320.6 29.3899 322.256 30.9142 325.131C32.4385 328.006 33.0067 330.912 32.6189 333.849C32.2634 336.769 31.187 340.319 29.3896 344.5C28.9853 345.376 28.9031 346.041 29.1428 346.493C29.434 347.042 30.0318 347.077 30.9363 346.597C31.0009 346.563 31.0655 346.529 31.1301 346.495L41.4131 340.484C41.4454 340.466 41.4777 340.449 41.51 340.432C42.0592 340.141 42.6836 340.265 43.3835 340.805C44.0661 341.312 44.7672 342.243 45.4865 343.6C46.1887 344.925 46.5535 346.159 46.5808 347.303C46.591 348.415 45.9263 349.347 44.5868 350.098C39.8575 352.73 35.1671 355.279 30.5156 357.745C25.8965 360.195 22.1808 362.123 19.3685 363.532C16.5563 364.94 14.9887 365.73 14.6657 365.901C14.3578 366.023 13.936 366.164 13.4001 366.324C12.8965 366.467 12.4716 366.485 12.1256 366.379C11.7948 366.223 11.4696 365.961 11.1501 365.593Z" fill="#30A46C"/>
<path d="M10.7193 374.263L52.0011 352.375L53.2857 354.797L12.0038 376.686L10.7193 374.263Z" fill="#30A46C"/>
</g>
</g>
<rect x="-58.9969" y="297.668" width="97.688" height="146.104" rx="6.42684" transform="rotate(-27.9334 -58.9969 297.668)" stroke="#D7DBDF" stroke-width="0.856912"/>
<g clip-path="url(#clip8_87_1526)">
<rect x="20.5094" y="448.533" width="98.5449" height="146.96" rx="6.8553" transform="rotate(-27.9334 20.5094 448.533)" fill="white"/>
<g clip-path="url(#clip9_87_1526)">
<rect x="32.0943" y="452.089" width="81.4066" height="129.822" rx="3.42765" transform="rotate(-27.9334 32.0943 452.089)" fill="#11181C"/>
<path d="M49.3792 459.719L49.6754 460.278C49.8247 460.56 49.8644 460.777 49.7945 460.931C49.7288 461.07 49.5915 461.196 49.3826 461.306L45.9621 463.12C45.7531 463.231 45.577 463.272 45.4337 463.243C45.2856 463.205 45.1324 463.048 44.974 462.771L44.6777 462.212C44.5284 461.931 44.4866 461.72 44.5522 461.58C44.6222 461.427 44.7616 461.295 44.9706 461.184L48.391 459.37C48.6 459.26 48.7785 459.223 48.9266 459.261C49.0699 459.29 49.2207 459.443 49.3792 459.719ZM52.6529 459.642L54.406 458.8C54.9148 458.53 55.2498 458.207 55.411 457.831C55.5113 457.603 55.5013 457.375 55.3809 457.148C55.0726 456.567 54.5687 456.462 53.8691 456.832C53.6148 456.967 53.3409 457.153 53.0476 457.39C52.7542 457.627 52.5758 457.763 52.5122 457.796C52.1215 458.003 51.7504 457.775 51.3987 457.112C51.2494 456.831 51.203 456.622 51.2596 456.488C51.3162 456.353 51.4169 456.236 51.5617 456.135C51.7065 456.035 51.9061 455.918 52.1605 455.783C52.41 455.639 52.6278 455.512 52.8138 455.402C53.3257 455.072 53.6428 454.77 53.765 454.496C53.8873 454.222 53.881 453.957 53.7461 453.703C53.6112 453.448 53.4123 453.304 53.1492 453.269C52.8953 453.229 52.6229 453.286 52.3322 453.44C51.7599 453.743 51.3133 454.306 50.9925 455.128C50.9402 455.249 50.8505 455.343 50.7233 455.41C50.6052 455.473 50.4507 455.456 50.2598 455.359C49.9854 455.237 49.7447 454.981 49.5376 454.59C49.3305 454.199 49.245 453.895 49.2812 453.678C49.3265 453.456 49.4806 453.165 49.7433 452.805C50.0013 452.435 50.4413 451.981 51.0632 451.442C51.6803 450.893 52.3023 450.453 52.9291 450.121C53.5651 449.783 54.1137 449.545 54.5749 449.405C55.0314 449.256 55.5122 449.164 56.0173 449.129C56.5225 449.094 56.9892 449.184 57.4176 449.399C57.855 449.61 58.1989 449.951 58.4494 450.423C58.6951 450.887 58.7916 451.365 58.739 451.859C58.6864 452.352 58.4667 452.783 58.0799 453.151C58.8042 453.046 59.4364 453.13 59.9765 453.402C60.5166 453.674 60.9287 454.079 61.2129 454.615C61.7621 455.65 61.7723 456.657 61.2437 457.636C60.7194 458.601 59.8485 459.406 58.6311 460.051C56.4326 461.217 54.8316 461.886 53.8283 462.057C53.3473 462.137 52.9928 462.028 52.7648 461.73C52.6889 461.631 52.5907 461.468 52.4702 461.24C52.3498 461.013 52.2698 460.84 52.2301 460.722C52.0395 460.253 52.1804 459.893 52.6529 459.642Z" fill="white"/>
<path d="M46.326 467.955L64.1214 458.52L64.4827 459.201L46.6873 468.636L46.326 467.955Z" fill="white"/>
<path d="M147.546 521.022L147.25 520.463C147.1 520.181 147.061 519.964 147.131 519.81C147.196 519.671 147.334 519.546 147.543 519.435L150.963 517.621C151.172 517.511 151.348 517.47 151.491 517.498C151.64 517.536 151.793 517.694 151.951 517.97L152.247 518.529C152.397 518.811 152.439 519.021 152.373 519.161C152.303 519.314 152.164 519.446 151.955 519.557L148.534 521.371C148.325 521.482 148.147 521.518 147.999 521.48C147.855 521.451 147.704 521.299 147.546 521.022ZM144.272 521.099L142.519 521.941C142.01 522.211 141.675 522.534 141.514 522.911C141.414 523.138 141.424 523.366 141.544 523.593C141.853 524.174 142.357 524.28 143.056 523.909C143.31 523.774 143.584 523.588 143.878 523.351C144.171 523.114 144.349 522.979 144.413 522.945C144.804 522.738 145.175 522.966 145.526 523.629C145.676 523.911 145.722 524.119 145.666 524.254C145.609 524.388 145.508 524.506 145.364 524.606C145.219 524.706 145.019 524.823 144.765 524.958C144.515 525.102 144.297 525.229 144.111 525.34C143.6 525.669 143.282 525.971 143.16 526.245C143.038 526.52 143.044 526.784 143.179 527.038C143.314 527.293 143.513 527.438 143.776 527.473C144.03 527.513 144.302 527.456 144.593 527.301C145.165 526.998 145.612 526.435 145.933 525.613C145.985 525.493 146.075 525.398 146.202 525.331C146.32 525.268 146.475 525.285 146.665 525.382C146.94 525.504 147.18 525.761 147.388 526.151C147.595 526.542 147.68 526.846 147.644 527.063C147.599 527.285 147.445 527.576 147.182 527.936C146.924 528.306 146.484 528.76 145.862 529.3C145.245 529.848 144.623 530.288 143.996 530.621C143.36 530.958 142.812 531.196 142.35 531.336C141.894 531.485 141.413 531.577 140.908 531.612C140.403 531.647 139.936 531.557 139.508 531.342C139.07 531.132 138.726 530.79 138.476 530.318C138.23 529.855 138.134 529.376 138.186 528.883C138.239 528.389 138.459 527.959 138.845 527.59C138.121 527.695 137.489 527.611 136.949 527.339C136.409 527.067 135.996 526.663 135.712 526.127C135.163 525.091 135.153 524.084 135.682 523.105C136.206 522.14 137.077 521.335 138.294 520.69C140.493 519.524 142.094 518.856 143.097 518.685C143.578 518.604 143.932 518.713 144.16 519.011C144.236 519.11 144.335 519.274 144.455 519.501C144.575 519.728 144.655 519.901 144.695 520.019C144.886 520.489 144.745 520.849 144.272 521.099Z" fill="white"/>
<path d="M150.599 512.786L132.804 522.222L132.443 521.54L150.238 512.105L150.599 512.786Z" fill="white"/>
<ellipse cx="98.43" cy="490.429" rx="30.8488" ry="51.4147" transform="rotate(7.12742 98.43 490.429)" fill="white"/>
<path d="M90.2175 502.09L91.2709 504.077C91.8018 505.078 91.9429 505.852 91.6943 506.398C91.4608 506.894 90.9726 507.339 90.2297 507.733L78.068 514.181C77.325 514.575 76.6988 514.721 76.1894 514.619C75.6628 514.484 75.1179 513.925 74.5546 512.94L73.5013 510.954C72.9704 509.952 72.8216 509.204 73.0551 508.707C73.3038 508.162 73.7996 507.692 74.5425 507.298L86.7042 500.85C87.4471 500.456 88.0819 500.326 88.6085 500.461C89.1179 500.563 89.6543 501.106 90.2175 502.09ZM101.857 501.816L108.091 498.821C109.9 497.862 111.091 496.713 111.664 495.375C112.021 494.565 111.985 493.756 111.557 492.949C110.461 490.881 108.669 490.507 106.182 491.826C105.277 492.305 104.304 492.966 103.261 493.809C102.218 494.652 101.583 495.133 101.357 495.253C99.9682 495.989 98.6485 495.179 97.3983 492.821C96.8673 491.819 96.7024 491.079 96.9036 490.6C97.1048 490.121 97.4628 489.703 97.9777 489.348C98.4926 488.992 99.2022 488.574 100.107 488.095C100.994 487.583 101.768 487.131 102.429 486.739C104.25 485.567 105.377 484.493 105.812 483.518C106.246 482.542 106.224 481.603 105.744 480.698C105.265 479.794 104.557 479.279 103.622 479.154C102.719 479.012 101.751 479.215 100.717 479.763C98.6823 480.842 97.0945 482.843 95.954 485.765C95.768 486.195 95.4489 486.529 94.9966 486.769C94.5767 486.992 94.0274 486.931 93.3486 486.588C92.3732 486.153 91.5173 485.241 90.7809 483.852C90.0444 482.463 89.7405 481.383 89.8693 480.611C90.0304 479.822 90.5781 478.787 91.5124 477.505C92.4297 476.191 93.9939 474.576 96.2052 472.658C98.3993 470.709 100.611 469.143 102.84 467.961C105.101 466.762 107.051 465.914 108.691 465.417C110.314 464.888 112.024 464.561 113.82 464.436C115.616 464.311 117.276 464.631 118.799 465.396C120.354 466.144 121.577 467.358 122.467 469.038C123.341 470.685 123.684 472.386 123.497 474.141C123.31 475.895 122.529 477.427 121.153 478.735C123.729 478.363 125.977 478.661 127.897 479.629C129.817 480.597 131.283 482.034 132.293 483.94C134.246 487.623 134.282 491.204 132.403 494.683C130.538 498.113 127.442 500.976 123.113 503.271C115.296 507.416 109.604 509.792 106.037 510.401C104.326 510.687 103.066 510.3 102.256 509.24C101.985 508.887 101.636 508.306 101.208 507.499C100.78 506.691 100.495 506.076 100.354 505.654C99.6767 503.986 100.178 502.707 101.857 501.816Z" fill="#11181C"/>
<path d="M79.3618 531.373L142.634 497.824L143.919 500.247L80.6464 533.795L79.3618 531.373Z" fill="#11181C"/>
</g>
</g>
<rect x="21.0886" y="448.711" width="97.688" height="146.104" rx="6.42684" transform="rotate(-27.9334 21.0886 448.711)" stroke="#D7DBDF" stroke-width="0.856912"/>
<g clip-path="url(#clip10_87_1526)">
<rect x="100.595" y="599.575" width="98.5449" height="146.96" rx="6.8553" transform="rotate(-27.9334 100.595 599.575)" fill="white"/>
<g clip-path="url(#clip11_87_1526)">
<rect x="112.18" y="603.132" width="81.4066" height="129.822" rx="3.42765" transform="rotate(-27.9334 112.18 603.132)" fill="#FFB224"/>
<path d="M130.119 604.357C130.562 605.193 130.575 605.721 130.157 605.943L127.178 607.47C126.951 607.59 126.86 607.726 126.905 607.877C126.966 608.124 127.025 608.301 127.083 608.411C127.199 608.629 127.347 608.689 127.529 608.593C127.642 608.521 127.813 608.425 128.04 608.305C129.312 607.63 130.45 607.417 131.454 607.664C132.453 607.903 133.189 608.467 133.661 609.357C134.133 610.248 134.18 611.247 133.801 612.356C133.418 613.455 132.586 614.344 131.305 615.023C129.388 616.04 127.983 616.605 127.088 616.718C126.667 616.779 126.342 616.66 126.114 616.362C126.038 616.262 125.952 616.122 125.855 615.94C125.754 615.749 125.644 615.476 125.525 615.12C125.311 614.628 125.34 614.31 125.613 614.166C125.74 614.098 125.998 614.014 126.387 613.913C126.779 613.797 127.076 613.687 127.276 613.581C128.193 613.094 128.467 612.501 128.096 611.802C127.961 611.547 127.741 611.385 127.435 611.314C127.13 611.243 126.787 611.309 126.405 611.511C126.396 611.516 126.079 611.719 125.454 612.12C125.172 612.27 124.943 612.321 124.767 612.275C124.587 612.219 124.395 612.001 124.193 611.619C123.991 611.237 123.477 610.049 122.652 608.054C122.53 607.758 122.505 607.503 122.578 607.29C122.651 607.077 122.847 606.886 123.165 606.717L126.775 604.768C127.602 604.329 128.207 604.021 128.589 603.841C128.966 603.653 129.238 603.573 129.404 603.601C129.635 603.641 129.873 603.893 130.119 604.357Z" fill="white" fill-opacity="0.923"/>
<path d="M126.411 618.997L136.877 613.448L137.239 614.13L126.773 619.679L126.411 618.997Z" fill="white" fill-opacity="0.923"/>
<path d="M226.977 678.469C226.534 677.633 226.521 677.105 226.939 676.883L229.918 675.356C230.145 675.236 230.236 675.1 230.191 674.949C230.13 674.702 230.071 674.524 230.013 674.415C229.897 674.197 229.749 674.136 229.567 674.233C229.454 674.305 229.284 674.401 229.056 674.521C227.785 675.195 226.647 675.409 225.642 675.161C224.643 674.923 223.907 674.359 223.435 673.468C222.963 672.578 222.916 671.579 223.295 670.47C223.678 669.371 224.51 668.482 225.791 667.803C227.708 666.786 229.113 666.221 230.008 666.108C230.43 666.047 230.754 666.166 230.982 666.464C231.058 666.564 231.144 666.704 231.241 666.886C231.342 667.077 231.452 667.35 231.571 667.706C231.785 668.198 231.756 668.516 231.483 668.66C231.356 668.728 231.098 668.812 230.71 668.913C230.317 669.028 230.02 669.139 229.821 669.245C228.903 669.731 228.63 670.325 229.001 671.024C229.135 671.278 229.355 671.441 229.661 671.512C229.966 671.583 230.309 671.517 230.691 671.315C230.7 671.31 231.017 671.107 231.643 670.706C231.924 670.556 232.153 670.505 232.329 670.551C232.51 670.607 232.701 670.825 232.903 671.207C233.106 671.588 233.619 672.777 234.444 674.772C234.566 675.068 234.591 675.323 234.518 675.536C234.445 675.749 234.249 675.94 233.931 676.109L230.321 678.058C229.494 678.496 228.89 678.805 228.508 678.985C228.13 679.173 227.858 679.253 227.692 679.225C227.461 679.184 227.223 678.932 226.977 678.469Z" fill="white" fill-opacity="0.923"/>
<path d="M230.685 663.829L220.219 669.378L219.858 668.696L230.323 663.147L230.685 663.829Z" fill="white" fill-opacity="0.923"/>
<ellipse cx="178.515" cy="641.472" rx="30.8488" ry="51.4147" transform="rotate(7.12742 178.515 641.472)" fill="white" fill-opacity="0.923"/>
<path d="M186.107 623.213C187.683 626.185 187.728 628.065 186.242 628.853L175.65 634.282C174.843 634.71 174.519 635.192 174.679 635.728C174.896 636.606 175.108 637.239 175.313 637.627C175.724 638.402 176.253 638.618 176.899 638.276C177.302 638.021 177.907 637.679 178.714 637.251C183.237 634.853 187.283 634.094 190.853 634.974C194.406 635.821 197.022 637.828 198.7 640.994C200.379 644.159 200.545 647.712 199.2 651.654C197.838 655.562 194.88 658.724 190.325 661.139C183.509 664.753 178.512 666.761 175.332 667.164C173.832 667.38 172.677 666.958 171.867 665.898C171.597 665.544 171.291 665.045 170.948 664.399C170.588 663.72 170.197 662.748 169.774 661.483C169.013 659.735 169.117 658.604 170.086 658.09C170.538 657.85 171.455 657.55 172.837 657.19C174.233 656.78 175.287 656.387 175.998 656.01C179.26 654.281 180.232 652.172 178.913 649.685C178.434 648.78 177.651 648.202 176.566 647.95C175.48 647.698 174.259 647.931 172.903 648.651C172.87 648.668 171.743 649.39 169.52 650.817C168.518 651.348 167.705 651.531 167.079 651.366C166.437 651.169 165.756 650.392 165.037 649.035C164.317 647.678 162.491 643.453 159.557 636.359C159.123 635.307 159.036 634.401 159.296 633.643C159.556 632.884 160.251 632.205 161.382 631.606L174.219 624.675C177.158 623.116 179.307 622.018 180.666 621.381C182.008 620.711 182.974 620.426 183.565 620.526C184.386 620.67 185.234 621.566 186.107 623.213Z" fill="#FFB224"/>
<path d="M172.925 675.269L210.137 655.538L211.421 657.961L174.21 677.691L172.925 675.269Z" fill="#FFB224"/>
</g>
</g>
<rect x="101.174" y="599.753" width="97.688" height="146.104" rx="6.42684" transform="rotate(-27.9334 101.174 599.753)" stroke="#D7DBDF" stroke-width="0.856912"/>
<g clip-path="url(#clip12_87_1526)">
<rect x="-41.4295" y="70.1159" width="98.5449" height="146.96" rx="6.8553" transform="rotate(-27.9334 -41.4295 70.1159)" fill="white"/>
<g clip-path="url(#clip13_87_1526)">
<rect x="-29.8446" y="73.6725" width="81.4066" height="129.822" rx="3.42765" transform="rotate(-27.9334 -29.8446 73.6725)" fill="#E54D2E"/>
<path d="M79.3924 143.561L79.6986 143.381C79.5439 143.067 79.3691 142.683 79.1743 142.227C79.0907 142.004 79.0874 141.767 79.1642 141.517C79.2319 141.271 79.3927 141.07 79.6466 140.912C80.1451 140.601 80.7351 140.265 81.4165 139.904C82.0978 139.542 82.7525 139.219 83.3804 138.932C83.6535 138.811 83.9152 138.788 84.1654 138.865C84.4066 138.947 84.6176 139.114 84.7984 139.367C84.9702 139.626 85.1736 139.954 85.4085 140.353L88.3929 138.771C88.8658 138.543 89.2378 138.422 89.5089 138.406C89.7756 138.404 89.9885 138.553 90.1474 138.853L90.5007 139.487C90.6933 139.85 90.7615 140.198 90.705 140.53C90.3818 142.599 89.7969 145.074 88.9504 147.955C88.8585 148.155 88.6718 148.33 88.3902 148.479L84.738 150.416C84.3565 150.618 84.0561 150.655 83.8368 150.527C83.6085 150.404 83.334 150.084 83.0135 149.567C82.6978 149.059 82.063 147.906 81.1092 146.107L80.8202 145.562L80.534 145.714C80.3433 145.815 80.1618 145.824 79.9896 145.741C79.8131 145.671 79.684 145.559 79.6021 145.405L79.183 144.614C78.9325 144.142 79.0023 143.791 79.3924 143.561ZM88.3363 141.891C88.2496 141.728 88.1199 141.692 87.9473 141.783L86.5846 142.506L87.7985 144.795C87.8742 144.499 87.9475 144.198 88.0184 143.893C88.0802 143.592 88.1487 143.283 88.2239 142.963C88.29 142.649 88.3396 142.413 88.3726 142.256C88.3966 142.104 88.3845 141.982 88.3363 141.891Z" fill="white" fill-opacity="0.923"/>
<path d="M88.6603 134.369L76.3412 140.901L75.9799 140.22L88.2991 133.688L88.6603 134.369Z" fill="white" fill-opacity="0.923"/>
<ellipse cx="36.4911" cy="112.012" rx="30.8488" ry="51.4147" transform="rotate(7.12742 36.4911 112.012)" fill="white" fill-opacity="0.923"/>
<path d="M60.0992 115.12L59.0105 115.759C59.5605 116.874 60.182 118.242 60.8749 119.861C61.1719 120.655 61.1838 121.497 60.9107 122.387C60.6698 123.259 60.0982 123.976 59.1957 124.537C57.423 125.643 55.3253 126.838 52.9026 128.122C50.48 129.407 48.1523 130.558 45.9196 131.577C44.9486 132.009 44.0182 132.088 43.1285 131.815C42.2711 131.525 41.5208 130.929 40.8778 130.029C40.2671 129.111 39.5441 127.943 38.7088 126.523L28.0976 132.15C26.4159 132.958 25.0933 133.391 24.1296 133.446C23.1812 133.453 22.4243 132.923 21.8592 131.857L20.6032 129.605C19.9182 128.313 19.676 127.076 19.8767 125.894C21.0258 118.539 23.1054 109.739 26.1154 99.4941C26.4419 98.783 27.1058 98.162 28.1072 97.6311L41.0925 90.746C42.4492 90.0267 43.5174 89.8948 44.297 90.3505C45.1089 90.7891 46.0847 91.927 47.2244 93.7643C48.3469 95.5693 50.6038 99.6697 53.995 106.065L55.0226 108.004L56.0401 107.464C56.7184 107.104 57.3637 107.073 57.976 107.369C58.6034 107.615 59.0626 108.013 59.3538 108.563L60.8439 111.373C61.7345 113.052 61.4863 114.301 60.0992 115.12ZM28.2987 121.056C28.607 121.637 29.068 121.765 29.6818 121.44L34.527 118.871L30.211 110.731C29.9418 111.784 29.6811 112.853 29.429 113.939C29.2092 115.007 28.9656 116.109 28.6983 117.244C28.4633 118.361 28.2871 119.2 28.1696 119.759C28.0844 120.3 28.1275 120.733 28.2987 121.056Z" fill="#E54D2E"/>
<path d="M27.1466 147.8L70.948 124.576L72.2325 126.998L28.4312 150.223L27.1466 147.8Z" fill="#E54D2E"/>
</g>
</g>
<rect x="-40.8503" y="70.2937" width="97.688" height="146.104" rx="6.42684" transform="rotate(-27.9334 -40.8503 70.2937)" stroke="#D7DBDF" stroke-width="0.856912"/>
<g clip-path="url(#clip14_87_1526)">
<rect x="38.656" y="221.158" width="98.5449" height="146.96" rx="6.8553" transform="rotate(-27.9334 38.656 221.158)" fill="white"/>
<g clip-path="url(#clip15_87_1526)">
<rect x="50.2409" y="224.715" width="81.4066" height="129.822" rx="3.42765" transform="rotate(-27.9334 50.2409 224.715)" fill="#3E63DD"/>
<path fill-rule="evenodd" clip-rule="evenodd" d="M64.0203 223.228C62.2755 224.15 60.8757 225.739 60.248 227.774C58.9928 231.844 61.2742 236.164 65.3439 237.419C69.4137 238.674 73.7338 236.393 74.9891 232.323C76.2443 228.254 73.9629 223.933 69.8932 222.678C67.8583 222.051 65.7651 222.306 64.0203 223.228ZM65.2103 225.507C66.0056 225.086 66.9143 224.871 67.8408 224.912L64.9203 234.425C62.9694 233.226 61.9963 230.817 62.7024 228.528C63.1208 227.171 64.0471 226.121 65.2103 225.507ZM70.3094 225.658C72.2681 226.854 73.2422 229.276 72.5347 231.57C71.828 233.861 69.6644 235.29 67.3746 235.179L70.3094 225.658Z" fill="white" fill-opacity="0.923"/>
<path fill-rule="evenodd" clip-rule="evenodd" d="M162.001 289.121C160.256 290.044 158.856 291.632 158.229 293.667C156.973 297.737 159.255 302.057 163.325 303.312C167.394 304.568 171.715 302.286 172.97 298.217C174.225 294.147 171.944 289.827 167.874 288.571C165.839 287.944 163.746 288.199 162.001 289.121ZM163.191 291.4C163.986 290.979 164.895 290.764 165.822 290.805L162.901 300.319C160.95 299.12 159.977 296.71 160.683 294.421C161.101 293.064 162.028 292.015 163.191 291.4ZM168.29 291.551C170.249 292.748 171.223 295.169 170.515 297.463C169.809 299.755 167.645 301.184 165.355 301.072L168.29 291.551Z" fill="white" fill-opacity="0.923"/>
<ellipse cx="116.577" cy="263.055" rx="30.8488" ry="51.4147" transform="rotate(7.12742 116.577 263.055)" fill="white" fill-opacity="0.923"/>
<path fill-rule="evenodd" clip-rule="evenodd" d="M104.719 240.446C98.902 243.52 94.2354 248.817 92.1431 255.6C87.9586 269.167 95.5639 283.569 109.131 287.754C122.698 291.938 137.1 284.333 141.284 270.766C145.469 257.199 137.864 242.797 124.297 238.612C117.513 236.52 110.535 237.371 104.719 240.446ZM108.686 248.041C111.337 246.64 114.366 245.922 117.455 246.059L107.719 277.773C101.215 273.776 97.9714 265.743 100.325 258.112C101.72 253.59 104.808 250.091 108.686 248.041ZM125.684 248.546C132.214 252.534 135.461 260.607 133.103 268.254C130.746 275.893 123.534 280.657 115.901 280.285L125.684 248.546Z" fill="#3E63DD"/>
</g>
</g>
<rect x="39.2352" y="221.336" width="97.688" height="146.104" rx="6.42684" transform="rotate(-27.9334 39.2352 221.336)" stroke="#D7DBDF" stroke-width="0.856912"/>
<g clip-path="url(#clip16_87_1526)">
<rect x="118.741" y="372.2" width="98.5449" height="146.96" rx="6.8553" transform="rotate(-27.9334 118.741 372.2)" fill="white"/>
<g clip-path="url(#clip17_87_1526)">
<rect x="130.326" y="375.757" width="81.4066" height="129.822" rx="3.42765" transform="rotate(-27.9334 130.326 375.757)" fill="#FFB224"/>
<path d="M142.863 387.109C142.252 385.955 142.381 384.828 143.252 383.726C142.192 383.636 141.498 383.282 141.17 382.665C140.838 382.038 140.786 381.39 141.013 380.723C141.425 379.457 142.484 378.371 144.192 377.466C145.809 376.608 147.215 376.317 148.408 376.592C149.019 376.734 149.454 377.05 149.714 377.541C150.133 378.331 150.084 379.16 149.567 380.028C151.07 380.011 152.133 380.588 152.754 381.76C153.106 382.423 153.153 383.149 152.896 383.937C152.643 384.711 152.186 385.431 151.526 386.095C150.87 386.745 150.115 387.297 149.261 387.75C148.407 388.203 147.577 388.503 146.771 388.651C145.965 388.799 145.203 388.755 144.484 388.519C143.77 388.27 143.229 387.8 142.863 387.109ZM148.637 384.135C148.429 383.745 147.832 383.561 146.843 383.585C146.692 384.002 146.706 384.379 146.884 384.715C147.057 385.042 147.276 385.224 147.539 385.259C147.802 385.294 148.042 385.254 148.26 385.138C148.487 385.017 148.626 384.862 148.677 384.673C148.737 384.478 148.723 384.299 148.637 384.135ZM144.561 380.203C144.754 380.566 145.252 380.693 146.054 380.581C146.188 380.219 146.168 379.875 145.995 379.548C145.894 379.357 145.75 379.229 145.565 379.165C145.379 379.1 145.177 379.126 144.959 379.241C144.75 379.352 144.609 379.503 144.535 379.693C144.471 379.879 144.479 380.049 144.561 380.203Z" fill="white" fill-opacity="0.923"/>
<path d="M144.558 391.623L155.583 385.777L155.944 386.459L144.919 392.304L144.558 391.623Z" fill="white" fill-opacity="0.923"/>
<path d="M250.526 440.967C251.138 442.121 251.008 443.249 250.138 444.351C251.198 444.44 251.892 444.794 252.219 445.412C252.552 446.039 252.604 446.686 252.376 447.354C251.965 448.62 250.905 449.705 249.197 450.611C247.58 451.468 246.175 451.759 244.981 451.484C244.371 451.342 243.935 451.026 243.675 450.536C243.256 449.745 243.305 448.916 243.823 448.048C242.319 448.066 241.257 447.488 240.635 446.316C240.284 445.653 240.236 444.928 240.493 444.139C240.746 443.365 241.203 442.646 241.863 441.982C242.519 441.331 243.274 440.779 244.128 440.327C244.982 439.874 245.812 439.573 246.618 439.425C247.425 439.277 248.187 439.321 248.906 439.557C249.62 439.807 250.16 440.277 250.526 440.967ZM244.753 443.941C244.96 444.332 245.558 444.515 246.546 444.492C246.697 444.074 246.684 443.697 246.505 443.361C246.332 443.034 246.114 442.853 245.851 442.818C245.588 442.783 245.347 442.823 245.129 442.939C244.902 443.059 244.763 443.214 244.713 443.404C244.653 443.599 244.666 443.778 244.753 443.941ZM248.828 447.873C248.635 447.51 248.138 447.384 247.336 447.495C247.202 447.857 247.221 448.202 247.395 448.529C247.496 448.719 247.639 448.847 247.825 448.912C248.01 448.976 248.212 448.951 248.43 448.835C248.639 448.724 248.78 448.574 248.854 448.383C248.919 448.198 248.91 448.028 248.828 447.873Z" fill="white" fill-opacity="0.923"/>
<path d="M248.831 436.454L237.807 442.299L237.446 441.618L248.47 435.772L248.831 436.454Z" fill="white" fill-opacity="0.923"/>
<ellipse cx="196.662" cy="414.097" rx="30.8488" ry="51.4147" transform="rotate(7.12742 196.662 414.097)" fill="white" fill-opacity="0.923"/>
<path d="M184.052 432.373C181.877 428.271 182.337 424.261 185.433 420.343C181.664 420.024 179.196 418.767 178.032 416.57C176.85 414.341 176.664 412.04 177.474 409.665C178.937 405.165 182.705 401.305 188.777 398.085C194.527 395.037 199.524 394.001 203.767 394.98C205.938 395.484 207.486 396.608 208.41 398.352C209.901 401.163 209.726 404.111 207.886 407.197C213.232 407.135 217.011 409.187 219.22 413.354C220.47 415.712 220.638 418.292 219.724 421.094C218.825 423.847 217.201 426.405 214.853 428.767C212.521 431.08 209.836 433.041 206.8 434.651C203.763 436.261 200.812 437.329 197.946 437.855C195.08 438.382 192.37 438.226 189.814 437.387C187.274 436.499 185.354 434.828 184.052 432.373ZM204.579 421.799C203.843 420.411 201.717 419.758 198.203 419.842C197.666 421.327 197.714 422.667 198.348 423.862C198.964 425.025 199.74 425.669 200.676 425.794C201.611 425.918 202.466 425.775 203.241 425.364C204.049 424.936 204.543 424.385 204.723 423.71C204.935 423.018 204.887 422.381 204.579 421.799ZM190.089 407.818C190.775 409.11 192.543 409.559 195.396 409.163C195.872 407.876 195.802 406.651 195.186 405.488C194.826 404.81 194.316 404.356 193.657 404.127C192.997 403.897 192.28 403.988 191.504 404.399C190.761 404.793 190.259 405.328 189.997 406.005C189.767 406.665 189.798 407.269 190.089 407.818Z" fill="#FFB224"/>
<path d="M190.078 448.421L229.276 427.637L230.561 430.06L191.362 450.844L190.078 448.421Z" fill="#FFB224"/>
</g>
</g>
<rect x="119.321" y="372.378" width="97.688" height="146.104" rx="6.42684" transform="rotate(-27.9334 119.321 372.378)" stroke="#D7DBDF" stroke-width="0.856912"/>
<g clip-path="url(#clip18_87_1526)">
<rect x="198.827" y="523.243" width="98.5449" height="146.96" rx="6.8553" transform="rotate(-27.9334 198.827 523.243)" fill="white"/>
<g clip-path="url(#clip19_87_1526)">
<rect x="210.412" y="526.799" width="81.4066" height="129.822" rx="3.42765" transform="rotate(-27.9334 210.412 526.799)" fill="#30A46C"/>
<path d="M223.086 529.454L227.911 526.931C228.247 526.753 228.5 526.671 228.671 526.685C228.938 526.706 229.243 527.039 229.585 527.684C229.758 528.011 229.849 528.324 229.856 528.623C229.867 528.908 229.887 529.637 229.915 530.809C229.952 531.977 229.974 532.786 229.98 533.236C230.019 534.671 230.004 536.092 229.937 537.502C229.92 537.778 229.872 537.984 229.793 538.119C229.722 538.25 229.56 538.382 229.306 538.517C227.389 539.533 226.084 540.19 225.392 540.487C224.928 540.687 224.614 540.632 224.45 540.324C224.358 540.151 224.315 539.894 224.321 539.554C224.365 537.727 224.422 536.177 224.493 534.906C224.568 533.621 224.611 532.824 224.622 532.516C224.633 532.207 224.619 532.017 224.581 531.944C224.48 531.753 224.325 531.713 224.116 531.824C224.116 531.824 223.249 532.307 221.514 533.273C221.324 533.374 221.139 533.367 220.962 533.252C220.78 533.127 220.626 532.947 220.5 532.711C220.37 532.465 220.252 532.208 220.144 531.939C220.032 531.662 220.01 531.446 220.08 531.292C220.15 531.139 220.444 530.913 220.961 530.616C221.487 530.313 222.196 529.926 223.086 529.454Z" fill="white" fill-opacity="0.923"/>
<path d="M224.644 542.665L235.382 536.971L235.743 537.653L225.005 543.346L224.644 542.665Z" fill="white" fill-opacity="0.923"/>
<path d="M330.474 600.707L325.65 603.23C325.313 603.408 325.06 603.49 324.89 603.476C324.622 603.455 324.318 603.122 323.976 602.477C323.802 602.15 323.712 601.837 323.705 601.538C323.693 601.253 323.674 600.524 323.646 599.352C323.609 598.185 323.587 597.375 323.581 596.925C323.542 595.491 323.556 594.069 323.624 592.66C323.64 592.383 323.688 592.177 323.768 592.042C323.838 591.912 324.001 591.779 324.255 591.644C326.172 590.628 327.476 589.971 328.169 589.674C328.633 589.474 328.947 589.529 329.111 589.838C329.202 590.01 329.245 590.267 329.24 590.607C329.196 592.434 329.139 593.984 329.068 595.255C328.993 596.54 328.95 597.337 328.939 597.645C328.927 597.954 328.941 598.145 328.98 598.217C329.081 598.408 329.236 598.448 329.445 598.337C329.445 598.337 330.312 597.854 332.046 596.888C332.237 596.787 332.421 596.794 332.599 596.909C332.781 597.034 332.935 597.214 333.06 597.45C333.19 597.696 333.309 597.953 333.417 598.222C333.529 598.5 333.55 598.715 333.48 598.869C333.41 599.022 333.117 599.248 332.599 599.545C332.073 599.848 331.365 600.235 330.474 600.707Z" fill="white" fill-opacity="0.923"/>
<path d="M328.917 587.496L318.179 593.19L317.817 592.508L328.556 586.815L328.917 587.496Z" fill="white" fill-opacity="0.923"/>
<ellipse cx="276.748" cy="565.139" rx="30.8488" ry="51.4147" transform="rotate(7.12742 276.748 565.139)" fill="white" fill-opacity="0.923"/>
<path d="M264.681 552.463L281.836 543.491C283.031 542.857 283.932 542.566 284.538 542.616C285.489 542.692 286.572 543.876 287.788 546.17C288.404 547.333 288.725 548.445 288.751 549.508C288.791 550.521 288.861 553.112 288.961 557.28C289.093 561.431 289.17 564.308 289.192 565.91C289.33 571.01 289.279 576.065 289.039 581.075C288.98 582.058 288.81 582.79 288.527 583.271C288.276 583.735 287.699 584.207 286.794 584.686C279.979 588.3 275.34 590.635 272.879 591.692C271.228 592.402 270.111 592.208 269.529 591.109C269.204 590.496 269.051 589.583 269.071 588.372C269.227 581.876 269.43 576.367 269.682 571.847C269.949 567.277 270.102 564.444 270.142 563.348C270.181 562.251 270.132 561.573 269.995 561.315C269.635 560.636 269.084 560.494 268.341 560.888C268.341 560.888 265.258 562.605 259.092 566.04C258.414 566.4 257.759 566.375 257.128 565.964C256.479 565.522 255.933 564.881 255.487 564.041C255.025 563.169 254.602 562.255 254.22 561.299C253.82 560.311 253.744 559.544 253.993 558.998C254.242 558.453 255.286 557.651 257.125 556.593C258.996 555.518 261.515 554.141 264.681 552.463Z" fill="#30A46C"/>
<path d="M270.219 599.434L308.399 579.19L309.684 581.613L271.503 601.857L270.219 599.434Z" fill="#30A46C"/>
</g>
</g>
<rect x="199.406" y="523.421" width="97.688" height="146.104" rx="6.42684" transform="rotate(-27.9334 199.406 523.421)" stroke="#D7DBDF" stroke-width="0.856912"/>
</g>
<defs>
<filter id="filter0_dd_87_1526" x="-283" y="0.026123" width="662.769" height="811.793" filterUnits="userSpaceOnUse" color-interpolation-filters="sRGB">
<feFlood flood-opacity="0" result="BackgroundImageFix"/>
<feColorMatrix in="SourceAlpha" type="matrix" values="0 0 0 0 0 0 0 0 0 0 0 0 0 0 0 0 0 0 127 0" result="hardAlpha"/>
<feOffset dy="4"/>
<feGaussianBlur stdDeviation="3"/>
<feColorMatrix type="matrix" values="0 0 0 0 0 0 0 0 0 0 0 0 0 0 0 0 0 0 0.05 0"/>
<feBlend mode="normal" in2="BackgroundImageFix" result="effect1_dropShadow_87_1526"/>
<feColorMatrix in="SourceAlpha" type="matrix" values="0 0 0 0 0 0 0 0 0 0 0 0 0 0 0 0 0 0 127 0" result="hardAlpha"/>
<feOffset dy="10"/>
<feGaussianBlur stdDeviation="7.5"/>
<feColorMatrix type="matrix" values="0 0 0 0 0 0 0 0 0 0 0 0 0 0 0 0 0 0 0.1 0"/>
<feBlend mode="normal" in2="effect1_dropShadow_87_1526" result="effect2_dropShadow_87_1526"/>
<feBlend mode="normal" in="SourceGraphic" in2="effect2_dropShadow_87_1526" result="shape"/>
</filter>
<clipPath id="clip0_87_1526">
<rect x="-107.829" y="468.085" width="98.5449" height="146.96" rx="6.8553" transform="rotate(-27.9334 -107.829 468.085)" fill="white"/>
</clipPath>
<clipPath id="clip1_87_1526">
<rect x="-96.2441" y="471.641" width="81.4066" height="129.822" rx="3.42765" transform="rotate(-27.9334 -96.2441 471.641)" fill="white"/>
</clipPath>
<clipPath id="clip2_87_1526">
<rect x="-27.7434" y="619.127" width="98.5449" height="146.96" rx="6.8553" transform="rotate(-27.9334 -27.7434 619.127)" fill="white"/>
</clipPath>
<clipPath id="clip3_87_1526">
<rect x="-16.1585" y="622.683" width="81.4066" height="129.822" rx="3.42765" transform="rotate(-27.9334 -16.1585 622.683)" fill="white"/>
</clipPath>
<clipPath id="clip4_87_1526">
<rect x="-139.662" y="146.448" width="98.5449" height="146.96" rx="6.8553" transform="rotate(-27.9334 -139.662 146.448)" fill="white"/>
</clipPath>
<clipPath id="clip5_87_1526">
<rect x="-128.077" y="150.005" width="81.4066" height="129.822" rx="3.42765" transform="rotate(-27.9334 -128.077 150.005)" fill="white"/>
</clipPath>
<clipPath id="clip6_87_1526">
<rect x="-59.5762" y="297.491" width="98.5449" height="146.96" rx="6.8553" transform="rotate(-27.9334 -59.5762 297.491)" fill="white"/>
</clipPath>
<clipPath id="clip7_87_1526">
<rect x="-47.9912" y="301.047" width="81.4066" height="129.822" rx="3.42765" transform="rotate(-27.9334 -47.9912 301.047)" fill="white"/>
</clipPath>
<clipPath id="clip8_87_1526">
<rect x="20.5094" y="448.533" width="98.5449" height="146.96" rx="6.8553" transform="rotate(-27.9334 20.5094 448.533)" fill="white"/>
</clipPath>
<clipPath id="clip9_87_1526">
<rect x="32.0943" y="452.089" width="81.4066" height="129.822" rx="3.42765" transform="rotate(-27.9334 32.0943 452.089)" fill="white"/>
</clipPath>
<clipPath id="clip10_87_1526">
<rect x="100.595" y="599.575" width="98.5449" height="146.96" rx="6.8553" transform="rotate(-27.9334 100.595 599.575)" fill="white"/>
</clipPath>
<clipPath id="clip11_87_1526">
<rect x="112.18" y="603.132" width="81.4066" height="129.822" rx="3.42765" transform="rotate(-27.9334 112.18 603.132)" fill="white"/>
</clipPath>
<clipPath id="clip12_87_1526">
<rect x="-41.4295" y="70.1159" width="98.5449" height="146.96" rx="6.8553" transform="rotate(-27.9334 -41.4295 70.1159)" fill="white"/>
</clipPath>
<clipPath id="clip13_87_1526">
<rect x="-29.8446" y="73.6725" width="81.4066" height="129.822" rx="3.42765" transform="rotate(-27.9334 -29.8446 73.6725)" fill="white"/>
</clipPath>
<clipPath id="clip14_87_1526">
<rect x="38.656" y="221.158" width="98.5449" height="146.96" rx="6.8553" transform="rotate(-27.9334 38.656 221.158)" fill="white"/>
</clipPath>
<clipPath id="clip15_87_1526">
<rect x="50.2409" y="224.715" width="81.4066" height="129.822" rx="3.42765" transform="rotate(-27.9334 50.2409 224.715)" fill="white"/>
</clipPath>
<clipPath id="clip16_87_1526">
<rect x="118.741" y="372.2" width="98.5449" height="146.96" rx="6.8553" transform="rotate(-27.9334 118.741 372.2)" fill="white"/>
</clipPath>
<clipPath id="clip17_87_1526">
<rect x="130.326" y="375.757" width="81.4066" height="129.822" rx="3.42765" transform="rotate(-27.9334 130.326 375.757)" fill="white"/>
</clipPath>
<clipPath id="clip18_87_1526">
<rect x="198.827" y="523.243" width="98.5449" height="146.96" rx="6.8553" transform="rotate(-27.9334 198.827 523.243)" fill="white"/>
</clipPath>
<clipPath id="clip19_87_1526">
<rect x="210.412" y="526.799" width="81.4066" height="129.822" rx="3.42765" transform="rotate(-27.9334 210.412 526.799)" fill="white"/>
</clipPath>
</defs>
</svg>
