<svg width="83" height="82" viewBox="0 0 83 82" fill="none" xmlns="http://www.w3.org/2000/svg">
<g clip-path="url(#clip0_87_1551)">
<path d="M71.3298 20.3474C79.3817 15.514 81.3702 1.39631 79.7598 3.0067C81.3702 1.39631 66.8744 3.0067 62.0433 11.0609C62.0433 7.84014 58.8225 -5.04525 53.9913 6.22975C49.1579 17.5048 50.7683 19.1151 50.7683 22.3359C50.7683 25.5567 57.2121 25.5567 57.2121 25.5567C57.2121 25.5567 56.9274 31.7158 60.1504 31.7158C63.3712 31.7158 64.6991 33.0438 75.9719 28.2126C87.2469 23.3791 74.5505 20.3474 71.3298 20.3474Z" fill="#77B255"/>
<path d="M51.5723 53.7419C34.2271 71.0872 5.67057 83.5375 1.64346 79.5104C-2.38366 75.4833 10.069 46.9268 27.412 29.5815C44.7572 12.2362 53.6747 12.3569 61.237 19.9169C68.7969 27.4791 68.9176 36.3966 51.5723 53.7419Z" fill="#F4900C"/>
<path d="M50.3264 33.1645C48.1124 30.9505 44.0169 26.8208 39.6391 19.2563C37.9239 20.377 36.0994 21.7414 34.1519 23.3746C40.5365 31.6042 52.6497 35.4855 50.3264 33.1645ZM33.2772 51.5507C30.9061 49.1795 26.3755 44.6035 21.6492 35.957C20.0843 37.8521 18.5764 39.8133 17.1392 41.8109C23.5329 50.0041 35.5914 53.8649 33.2772 51.5507ZM54.4628 50.7512C46.3061 46.1774 41.9578 41.8451 39.6527 39.5422C37.3294 37.2143 41.2289 49.3708 49.4859 55.7463C50.1943 55.0858 53.554 51.7215 54.4628 50.7512ZM26.7127 71.9892C28.7513 70.8685 30.8218 69.6545 32.8968 68.3516C25.4417 64.0124 21.3508 59.9625 19.1527 57.7645C17.0526 55.6621 20.0319 65.3882 26.7127 71.9892Z" fill="#D67503"/>
</g>
<defs>
<clipPath id="clip0_87_1551">
<rect width="82" height="82" fill="white" transform="translate(0.5)"/>
</clipPath>
</defs>
</svg>
