<svg width="626" height="440" viewBox="0 0 626 440" fill="none" xmlns="http://www.w3.org/2000/svg">
  <g>
    <path
      d="M202.999 46.483L15.1775 109.15C6.79519 111.947 2.26723 121.009 5.064 129.391L103.496 424.404C106.292 432.786 115.355 437.314 123.737 434.517L311.558 371.85C319.941 369.053 324.469 359.991 321.672 351.609L223.24 56.5964C220.444 48.2141 211.381 43.6862 202.999 46.483Z"
      fill="white" />
    <g>
      <path
        d="M197.946 69.253L32.8906 124.324C28.6994 125.722 26.4354 130.254 27.8338 134.445L118.669 406.691C120.068 410.882 124.599 413.146 128.79 411.748L293.845 356.676C298.036 355.278 300.3 350.747 298.902 346.556L208.066 74.3097C206.668 70.1186 202.137 67.8546 197.946 69.253Z"
        fill="#E54D2E" />
      <g>
        <path
          d="M52.2367 157.27L56.5965 156.005C57.8714 155.58 58.7668 154.965 59.2826 154.16C59.6012 153.675 59.6656 153.147 59.4757 152.578C58.9895 151.121 57.87 150.685 56.117 151.27C55.4795 151.482 54.7776 151.805 54.0112 152.238C53.2448 152.671 52.7819 152.914 52.6225 152.967C51.6436 153.294 50.8768 152.626 50.3223 150.964C50.0869 150.258 50.0601 149.761 50.2422 149.473C50.4243 149.184 50.7012 148.953 51.0731 148.778C51.4449 148.603 51.9495 148.41 52.587 148.197C53.2169 147.962 53.767 147.753 54.2375 147.57C55.5428 147.008 56.3888 146.435 56.7757 145.851C57.1626 145.266 57.2497 144.655 57.037 144.018C56.8243 143.38 56.422 142.971 55.8299 142.789C55.2607 142.599 54.6118 142.626 53.8833 142.869C52.449 143.347 51.2046 144.471 50.1502 146.24C49.9833 146.498 49.7405 146.68 49.4218 146.786C49.1258 146.885 48.7767 146.786 48.3743 146.491C47.7899 146.104 47.3343 145.421 47.0077 144.442C46.681 143.463 46.6011 142.731 46.768 142.245C46.9576 141.751 47.4241 141.14 48.1677 140.412C48.9037 139.66 50.0912 138.783 51.7302 137.781C53.3616 136.756 54.9628 135.981 56.5337 135.457C58.1273 134.925 59.4819 134.587 60.5975 134.443C61.7055 134.275 62.8477 134.248 64.0241 134.362C65.2005 134.475 66.2404 134.862 67.1438 135.522C68.0699 136.175 68.7304 137.093 69.1254 138.277C69.5128 139.438 69.5511 140.576 69.2402 141.692C68.9294 142.808 68.258 143.715 67.226 144.413C68.9336 144.451 70.3568 144.887 71.4954 145.721C72.6341 146.556 73.4275 147.645 73.8757 148.988C74.7416 151.583 74.378 153.906 72.7848 155.955C71.2068 157.975 68.8924 159.493 65.8417 160.511C60.3323 162.349 56.3898 163.272 54.0143 163.281C52.8759 163.281 52.1017 162.894 51.6916 162.12C51.5549 161.862 51.3917 161.449 51.2018 160.879C51.0119 160.31 50.8941 159.881 50.8485 159.593C50.5901 158.44 51.0528 157.665 52.2367 157.27Z"
          fill="white" fill-opacity="0.923" />
        <path d="M51.7503 168.211L79.0698 159.095L79.6395 160.803L52.32 169.918L51.7503 168.211Z" fill="white"
          fill-opacity="0.923" />
      </g>
      <g>
        <path
          d="M274.499 323.73L270.139 324.995C268.864 325.42 267.969 326.035 267.453 326.84C267.134 327.325 267.07 327.853 267.26 328.422C267.746 329.879 268.866 330.315 270.619 329.73C271.256 329.518 271.958 329.195 272.724 328.762C273.491 328.329 273.954 328.086 274.113 328.033C275.092 327.706 275.859 328.374 276.413 330.036C276.649 330.742 276.675 331.239 276.493 331.527C276.311 331.816 276.034 332.047 275.663 332.222C275.291 332.397 274.786 332.59 274.149 332.803C273.519 333.038 272.969 333.247 272.498 333.43C271.193 333.992 270.347 334.565 269.96 335.149C269.573 335.734 269.486 336.345 269.699 336.982C269.911 337.62 270.314 338.029 270.906 338.211C271.475 338.401 272.124 338.374 272.852 338.131C274.287 337.653 275.531 336.529 276.585 334.76C276.752 334.502 276.995 334.32 277.314 334.214C277.61 334.115 277.959 334.214 278.361 334.509C278.946 334.896 279.401 335.579 279.728 336.558C280.055 337.537 280.134 338.269 279.968 338.755C279.778 339.249 279.311 339.86 278.568 340.588C277.832 341.34 276.644 342.217 275.005 343.219C273.374 344.244 271.773 345.019 270.202 345.543C268.608 346.075 267.254 346.413 266.138 346.557C265.03 346.725 263.888 346.752 262.711 346.638C261.535 346.525 260.495 346.138 259.592 345.478C258.666 344.825 258.005 343.907 257.61 342.723C257.223 341.562 257.185 340.424 257.495 339.308C257.806 338.192 258.478 337.285 259.51 336.587C257.802 336.549 256.379 336.113 255.24 335.279C254.101 334.444 253.308 333.355 252.86 332.012C251.994 329.417 252.358 327.094 253.951 325.045C255.529 323.025 257.843 321.507 260.894 320.489C266.403 318.651 270.346 317.728 272.721 317.719C273.86 317.719 274.634 318.106 275.044 318.88C275.181 319.138 275.344 319.551 275.534 320.121C275.724 320.69 275.841 321.119 275.887 321.407C276.145 322.56 275.683 323.335 274.499 323.73Z"
          fill="white" fill-opacity="0.923" />
        <path d="M274.985 312.789L247.666 321.905L247.096 320.197L274.416 311.082L274.985 312.789Z" fill="white"
          fill-opacity="0.923" />
      </g>
      <path
        d="M128.969 355.615C167.074 366.982 213.322 324.712 232.266 261.203C251.21 197.694 235.677 136.995 197.571 125.629C159.466 114.262 113.218 156.532 94.2742 220.041C75.33 283.55 90.8632 344.249 128.969 355.615Z"
        fill="white" fill-opacity="0.923" />
      <g>
        <path
          d="M136.101 278.006L151.603 273.509C156.136 271.996 159.319 269.809 161.153 266.949C162.286 265.221 162.515 263.346 161.84 261.322C160.111 256.141 156.131 254.591 149.898 256.671C147.631 257.427 145.135 258.574 142.41 260.113C139.685 261.652 138.04 262.516 137.473 262.705C133.992 263.867 131.266 261.493 129.294 255.584C128.457 253.074 128.362 251.307 129.01 250.281C129.657 249.256 130.642 248.432 131.964 247.811C133.286 247.19 135.08 246.502 137.347 245.745C139.586 244.908 141.542 244.166 143.215 243.517C147.856 241.519 150.864 239.481 152.24 237.403C153.615 235.325 153.925 233.152 153.169 230.886C152.413 228.619 150.982 227.162 148.877 226.515C146.853 225.841 144.546 225.936 141.956 226.801C136.856 228.502 132.432 232.497 128.683 238.786C128.089 239.703 127.226 240.351 126.093 240.729C125.04 241.081 123.799 240.73 122.368 239.678C120.29 238.302 118.67 235.874 117.509 232.394C116.348 228.913 116.064 226.309 116.657 224.582C117.331 222.828 118.99 220.655 121.634 218.063C124.25 215.391 128.473 212.273 134.3 208.71C140.101 205.065 145.794 202.311 151.379 200.447C157.045 198.557 161.862 197.355 165.829 196.841C169.768 196.246 173.829 196.15 178.012 196.554C182.195 196.958 185.892 198.333 189.104 200.679C192.397 202.999 194.745 206.264 196.15 210.473C197.527 214.601 197.663 218.649 196.558 222.616C195.453 226.583 193.066 229.808 189.396 232.292C195.468 232.425 200.528 233.975 204.577 236.943C208.625 239.91 211.446 243.781 213.04 248.557C216.119 257.785 214.826 266.043 209.161 273.33C203.55 280.51 195.321 285.909 184.475 289.528C164.886 296.064 150.868 299.347 142.422 299.376C138.374 299.377 135.621 298.002 134.163 295.25C133.677 294.332 133.097 292.862 132.421 290.838C131.746 288.815 131.327 287.29 131.165 286.265C130.247 282.163 131.892 279.41 136.101 278.006Z"
          fill="#E54D2E" />
        <path d="M134.372 316.905L231.508 284.495L233.533 290.566L136.397 322.976L134.372 316.905Z" fill="#E54D2E" />
      </g>
    </g>
  </g>
  <g>
    <path
      d="M610.221 102.749L419.991 47.8271C411.501 45.3759 402.632 50.2712 400.181 58.761L313.914 357.557C311.463 366.047 316.358 374.916 324.848 377.367L515.078 432.29C523.568 434.741 532.437 429.845 534.889 421.356L621.155 122.56C623.606 114.07 618.711 105.2 610.221 102.749Z"
      fill="white" />
    <g>
      <path
        d="M593.144 118.636L425.972 70.3708C421.727 69.1452 417.292 71.5929 416.067 75.8378L336.457 351.576C335.232 355.82 337.679 360.255 341.924 361.481L509.096 409.746C513.341 410.971 517.776 408.524 519.001 404.279L598.611 128.541C599.837 124.296 597.389 119.861 593.144 118.636Z"
        fill="#30A46C" />
      <g>
        <path
          d="M447.074 116.827L446.269 116.632C446.019 117.409 445.689 118.338 445.277 119.418C445.055 119.929 444.676 120.331 444.141 120.627C443.629 120.928 443.032 121.006 442.35 120.859C441.009 120.572 439.474 120.178 437.745 119.679C436.016 119.18 434.392 118.661 432.874 118.123C432.218 117.884 431.743 117.497 431.448 116.962C431.175 116.434 431.093 115.81 431.201 115.092C431.331 114.38 431.523 113.499 431.777 112.448L424.202 110.261C423.039 109.875 422.218 109.476 421.738 109.062C421.287 108.633 421.172 108.037 421.392 107.276L421.826 105.641C422.093 104.718 422.543 104.024 423.177 103.558C427.075 100.611 432.072 97.4077 438.167 93.9466C438.646 93.76 439.243 93.7699 439.957 93.9763L449.227 96.6525C450.195 96.9321 450.759 97.3573 450.919 97.928C451.102 98.5055 451.044 99.4877 450.743 100.875C450.449 102.239 449.643 105.204 448.325 109.769L447.926 111.153L448.652 111.362C449.136 111.502 449.455 111.782 449.609 112.201C449.792 112.603 449.828 113.001 449.714 113.393L449.135 115.399C448.789 116.598 448.102 117.074 447.074 116.827ZM429.359 105.118C429.239 105.533 429.398 105.803 429.836 105.93L433.295 106.929L434.973 101.118C434.365 101.492 433.754 101.878 433.14 102.275C432.549 102.679 431.931 103.087 431.287 103.501C430.666 103.921 430.2 104.236 429.89 104.447C429.603 104.663 429.426 104.887 429.359 105.118Z"
          fill="white" fill-opacity="0.923" />
        <path d="M416.612 117.212L447.879 126.24L447.38 127.969L416.113 118.942L416.612 117.212Z" fill="white"
          fill-opacity="0.923" />
      </g>
      <g>
        <path
          d="M487.995 363.289L488.801 363.484C489.05 362.707 489.381 361.778 489.792 360.698C490.015 360.188 490.393 359.785 490.928 359.49C491.44 359.188 492.037 359.111 492.719 359.257C494.06 359.545 495.595 359.938 497.324 360.437C499.054 360.937 500.678 361.455 502.196 361.994C502.851 362.233 503.326 362.62 503.622 363.155C503.894 363.683 503.976 364.306 503.869 365.025C503.738 365.736 503.546 366.618 503.293 367.669L510.867 369.855C512.03 370.241 512.851 370.641 513.332 371.054C513.782 371.484 513.897 372.079 513.678 372.84L513.243 374.476C512.977 375.398 512.526 376.092 511.892 376.559C507.994 379.505 502.997 382.709 496.902 386.17C496.423 386.356 495.827 386.347 495.112 386.14L485.843 383.464C484.874 383.184 484.31 382.759 484.15 382.188C483.967 381.611 484.026 380.629 484.326 379.242C484.62 377.878 485.426 374.913 486.744 370.347L487.144 368.964L486.417 368.754C485.933 368.614 485.614 368.335 485.46 367.916C485.277 367.513 485.242 367.116 485.355 366.724L485.934 364.718C486.28 363.519 486.967 363.043 487.995 363.289ZM505.71 374.999C505.83 374.584 505.671 374.313 505.233 374.186L501.774 373.188L500.097 378.999C500.704 378.624 501.315 378.239 501.929 377.842C502.521 377.438 503.138 377.029 503.782 376.615C504.403 376.195 504.869 375.88 505.179 375.67C505.467 375.453 505.644 375.229 505.71 374.999Z"
          fill="white" fill-opacity="0.923" />
        <path d="M518.457 362.904L487.19 353.877L487.69 352.147L518.957 361.175L518.457 362.904Z" fill="white"
          fill-opacity="0.923" />
      </g>
      <path
        d="M373.91 315.354C398.846 346.328 460.91 337.748 512.535 296.189C564.159 254.63 585.795 195.829 560.86 164.854C535.924 133.88 473.86 142.46 422.235 184.019C370.611 225.578 348.975 284.379 373.91 315.354Z"
        fill="white" fill-opacity="0.923" />
      <g>
        <path
          d="M501.722 283.173L498.858 282.479C497.971 285.243 496.796 288.545 495.332 292.386C494.541 294.201 493.195 295.633 491.293 296.682C489.474 297.756 487.351 298.031 484.926 297.509C480.158 296.488 474.7 295.089 468.551 293.314C462.402 291.539 456.629 289.694 451.231 287.78C448.9 286.93 447.21 285.554 446.161 283.652C445.193 281.774 444.9 279.558 445.282 277.004C445.747 274.473 446.429 271.339 447.33 267.603L420.398 259.827C416.265 258.456 413.344 257.035 411.637 255.565C410.035 254.037 409.625 251.92 410.406 249.215L411.952 243.399C412.899 240.12 414.5 237.651 416.755 235.993C430.615 225.517 448.381 214.126 470.053 201.82C471.755 201.157 473.876 201.192 476.418 201.926L509.376 211.441C512.819 212.435 514.825 213.947 515.394 215.977C516.044 218.03 515.835 221.522 514.767 226.454C513.722 231.304 510.856 241.845 506.169 258.078L504.749 262.997L507.332 263.743C509.053 264.24 510.188 265.233 510.734 266.723C511.387 268.155 511.512 269.568 511.109 270.962L509.05 278.095C507.819 282.358 505.377 284.051 501.722 283.173ZM438.735 241.54C438.309 243.015 438.874 243.978 440.432 244.428L452.73 247.978L458.695 227.318C456.534 228.648 454.362 230.02 452.178 231.432C450.076 232.868 447.88 234.321 445.59 235.792C443.382 237.286 441.726 238.407 440.623 239.154C439.601 239.924 438.971 240.72 438.735 241.54Z"
          fill="#30A46C" />
        <path d="M393.412 284.543L504.583 316.64L502.808 322.789L391.636 290.692L393.412 284.543Z" fill="#30A46C" />
      </g>
    </g>
  </g>
  <g>
    <path
      d="M413.114 16.4635L215.671 1.61854C206.859 0.95602 199.179 7.56223 198.516 16.3739L175.199 326.499C174.537 335.31 181.143 342.991 189.955 343.653L387.397 358.498C396.209 359.161 403.889 352.554 404.552 343.743L427.869 33.618C428.532 24.8063 421.925 17.126 413.114 16.4635Z"
      fill="white" />
    <g>
      <path
        d="M399.649 35.5075L226.138 22.462C221.733 22.1307 217.892 25.4338 217.561 29.8397L196.044 316.032C195.712 320.438 199.015 324.278 203.421 324.609L376.932 337.655C381.337 337.986 385.178 334.683 385.509 330.277L407.026 44.0848C407.358 39.679 404.055 35.8388 399.649 35.5075Z"
        fill="#3E63DD" />
      <g>
        <path
          d="M229.833 65.5644L229.658 63.5656C229.627 63.3466 229.619 63.1295 229.635 62.9141C229.695 62.1243 230.053 61.5254 230.709 61.1175C233.307 59.5318 235.639 57.8058 237.705 55.9394C239.795 54.0749 240.89 52.4725 240.991 51.1323C241.061 50.1989 240.818 49.4225 240.263 48.8032C239.71 48.1599 239.05 47.8094 238.284 47.7519C236.537 47.6205 234.834 48.1904 233.174 49.4615C232.916 49.6828 232.623 49.745 232.293 49.648C231.256 49.3534 230.817 48.1531 230.976 46.0471C231.03 45.3291 231.227 44.7784 231.569 44.3949C231.935 44.0133 232.515 43.6598 233.31 43.3344C236.461 42.0791 239.987 41.5982 243.887 41.8915C247.812 42.1866 250.681 43.0882 252.493 44.5963C254.307 46.0804 255.134 47.8875 254.973 50.0175C254.813 52.1475 254.111 53.96 252.868 55.4549C251.648 56.9517 249.807 58.5462 247.346 60.2384C246.814 60.5835 246.536 60.9236 246.511 61.2586C246.48 61.6655 246.8 61.8941 247.47 61.9445C247.518 61.9481 247.566 61.9517 247.614 61.9553L255.428 62.2179C255.452 62.2197 255.476 62.2215 255.5 62.2233C255.907 62.2539 256.21 62.5414 256.41 63.0859C256.611 63.6065 256.674 64.3694 256.599 65.3746C256.525 66.3558 256.295 67.1689 255.91 67.8138C255.526 68.4348 254.831 68.7194 253.824 68.6678C250.277 68.4733 246.78 68.2465 243.333 67.9874C239.911 67.73 237.173 67.5001 235.118 67.2975C233.063 67.0949 231.916 66.9846 231.677 66.9666C231.464 66.9264 231.18 66.857 230.826 66.7582C230.497 66.6612 230.254 66.5226 230.099 66.3425C229.97 66.1403 229.881 65.8809 229.833 65.5644Z"
          fill="white" fill-opacity="0.923" />
        <path d="M226.558 70.228L257.144 72.5276L257.009 74.3225L226.423 72.0229L226.558 70.228Z" fill="white"
          fill-opacity="0.923" />
      </g>
      <g>
        <path
          d="M373.236 294.552L373.411 296.551C373.443 296.77 373.45 296.987 373.434 297.203C373.375 297.992 373.017 298.591 372.36 298.999C369.762 300.585 367.43 302.311 365.364 304.177C363.275 306.042 362.18 307.644 362.079 308.984C362.009 309.918 362.251 310.694 362.806 311.314C363.36 311.957 364.019 312.307 364.785 312.365C366.532 312.496 368.236 311.926 369.896 310.655C370.153 310.434 370.446 310.372 370.776 310.469C371.813 310.763 372.252 311.964 372.094 314.07C372.04 314.788 371.842 315.338 371.5 315.722C371.135 316.103 370.554 316.457 369.76 316.782C366.609 318.038 363.083 318.519 359.182 318.225C355.257 317.93 352.388 317.029 350.576 315.52C348.763 314.036 347.936 312.229 348.096 310.099C348.256 307.969 348.958 306.157 350.201 304.662C351.421 303.165 353.262 301.571 355.724 299.878C356.255 299.533 356.533 299.193 356.559 298.858C356.589 298.451 356.269 298.223 355.599 298.172C355.551 298.169 355.503 298.165 355.456 298.161L347.641 297.899C347.617 297.897 347.593 297.895 347.57 297.893C347.163 297.863 346.859 297.575 346.66 297.031C346.458 296.51 346.395 295.747 346.471 294.742C346.544 293.761 346.774 292.948 347.16 292.303C347.543 291.682 348.238 291.397 349.245 291.449C352.793 291.643 356.29 291.87 359.736 292.129C363.158 292.387 365.897 292.617 367.951 292.819C370.006 293.022 371.153 293.132 371.392 293.15C371.606 293.19 371.889 293.26 372.243 293.359C372.573 293.455 372.815 293.594 372.97 293.774C373.099 293.976 373.188 294.236 373.236 294.552Z"
          fill="white" fill-opacity="0.923" />
        <path d="M376.511 289.889L345.925 287.589L346.06 285.794L376.646 288.094L376.511 289.889Z" fill="white"
          fill-opacity="0.923" />
      </g>
      <path
        d="M225.293 272.914C256.038 298.133 315.034 277.038 357.065 225.796C399.096 174.555 408.246 112.572 377.501 87.3536C346.756 62.135 287.76 83.2305 245.729 134.472C203.698 185.713 194.548 247.696 225.293 272.914Z"
        fill="white" fill-opacity="0.923" />
      <g>
        <path
          d="M253.587 222.475L252.966 215.368C252.854 214.59 252.826 213.818 252.884 213.052C253.095 210.244 254.368 208.114 256.702 206.664C265.94 201.026 274.231 194.889 281.576 188.253C289.006 181.623 292.9 175.926 293.258 171.161C293.508 167.842 292.646 165.082 290.672 162.88C288.705 160.592 286.359 159.346 283.636 159.142C277.425 158.675 271.368 160.701 265.465 165.22C264.551 166.007 263.507 166.228 262.335 165.884C258.648 164.836 257.087 160.568 257.65 153.08C257.842 150.527 258.545 148.569 259.76 147.206C261.06 145.849 263.123 144.592 265.948 143.435C277.152 138.972 289.688 137.262 303.559 138.305C317.514 139.354 327.713 142.56 334.156 147.922C340.605 153.199 343.545 159.624 342.975 167.197C342.406 174.77 339.91 181.215 335.489 186.53C331.152 191.852 324.608 197.521 315.854 203.538C313.965 204.765 312.976 205.974 312.886 207.166C312.777 208.612 313.914 209.425 316.297 209.604C316.467 209.617 316.637 209.63 316.807 209.643L344.592 210.576C344.677 210.583 344.762 210.589 344.847 210.596C346.293 210.704 347.372 211.727 348.082 213.663C348.799 215.514 349.023 218.226 348.754 221.8C348.492 225.289 347.675 228.18 346.305 230.473C344.941 232.681 342.469 233.693 338.888 233.509C326.275 232.818 313.842 232.011 301.589 231.09C289.42 230.175 279.684 229.358 272.378 228.637C265.073 227.917 260.995 227.525 260.144 227.461C259.385 227.318 258.376 227.071 257.119 226.72C255.947 226.375 255.086 225.882 254.535 225.242C254.075 224.523 253.76 223.6 253.587 222.475Z"
          fill="#3E63DD" />
        <path d="M241.943 239.057L350.692 247.233L350.213 253.615L241.464 245.439L241.943 239.057Z" fill="#3E63DD" />
      </g>
    </g>
  </g>
</svg>
