<svg width="626" height="440" viewBox="0 0 626 440" fill="none" xmlns="http://www.w3.org/2000/svg">
<g clip-path="url(#clip0_164_4080)">
<mask id="mask0_164_4080" style="mask-type:luminance" maskUnits="userSpaceOnUse" x="4" y="45" width="320" height="391">
<path d="M203.593 46.483L15.7712 109.15C7.38894 111.947 2.86098 121.009 5.65775 129.391L104.089 424.404C106.886 432.786 115.948 437.314 124.331 434.517L312.152 371.85C320.534 369.053 325.062 359.991 322.266 351.609L223.834 56.5964C221.037 48.2141 211.975 43.6862 203.593 46.483Z" fill="white"/>
</mask>
<g mask="url(#mask0_164_4080)">
<path d="M203.593 46.483L15.7712 109.15C7.38894 111.947 2.86098 121.009 5.65775 129.391L104.089 424.404C106.886 432.786 115.948 437.314 124.331 434.517L312.152 371.85C320.534 369.053 325.062 359.991 322.266 351.609L223.834 56.5964C221.037 48.2141 211.975 43.6862 203.593 46.483Z" fill="white"/>
<mask id="mask1_164_4080" style="mask-type:luminance" maskUnits="userSpaceOnUse" x="28" y="68" width="272" height="345">
<path d="M198.539 69.2529L33.4842 124.324C29.2931 125.722 27.0291 130.254 28.4275 134.445L119.263 406.691C120.661 410.882 125.193 413.146 129.384 411.747L294.439 356.676C298.63 355.278 300.894 350.747 299.496 346.556L208.66 74.3097C207.262 70.1185 202.73 67.8545 198.539 69.2529Z" fill="white"/>
</mask>
<g mask="url(#mask1_164_4080)">
<path d="M198.539 69.2529L33.4842 124.324C29.2931 125.722 27.0291 130.254 28.4275 134.445L119.263 406.691C120.661 410.882 125.193 413.146 129.384 411.747L294.439 356.676C298.63 355.278 300.894 350.747 299.496 346.556L208.66 74.3097C207.262 70.1185 202.73 67.8545 198.539 69.2529Z" fill="#E54D2E"/>
<path d="M129.563 355.616C167.668 366.983 213.916 324.713 232.86 261.204C251.804 197.695 236.271 136.996 198.166 125.63C160.06 114.263 113.812 156.533 94.8682 220.042C75.924 283.551 91.4572 344.25 129.563 355.616Z" fill="white" fill-opacity="0.923"/>
</g>
</g>
<path d="M203.909 47.4315L16.0878 110.099C8.22938 112.72 3.98441 121.216 6.60639 129.075L105.038 424.087C107.66 431.946 116.156 436.191 124.014 433.569L311.836 370.902C319.694 368.28 323.939 359.784 321.317 351.925L222.885 56.9129C220.263 49.0545 211.767 44.8095 203.909 47.4315Z" stroke="#D7DBDF" stroke-width="2"/>
<mask id="mask2_164_4080" style="mask-type:luminance" maskUnits="userSpaceOnUse" x="313" y="47" width="310" height="386">
<path d="M610.815 102.749L420.585 47.8271C412.095 45.3759 403.226 50.2713 400.775 58.7611L314.508 357.557C312.057 366.047 316.952 374.916 325.442 377.367L515.672 432.29C524.162 434.741 533.031 429.845 535.482 421.356L621.749 122.56C624.2 114.07 619.305 105.2 610.815 102.749Z" fill="white"/>
</mask>
<g mask="url(#mask2_164_4080)">
<path d="M610.815 102.749L420.585 47.8271C412.095 45.3759 403.226 50.2713 400.775 58.7611L314.508 357.557C312.057 366.047 316.952 374.916 325.442 377.367L515.672 432.29C524.162 434.741 533.031 429.845 535.482 421.356L621.749 122.56C624.2 114.07 619.305 105.2 610.815 102.749Z" fill="white"/>
<mask id="mask3_164_4080" style="mask-type:luminance" maskUnits="userSpaceOnUse" x="336" y="70" width="264" height="341">
<path d="M593.738 118.636L426.566 70.371C422.321 69.1454 417.886 71.5931 416.661 75.838L337.051 351.576C335.826 355.821 338.273 360.255 342.518 361.481L509.69 409.746C513.935 410.971 518.37 408.524 519.596 404.279L599.205 128.541C600.431 124.296 597.983 119.862 593.738 118.636Z" fill="white"/>
</mask>
<g mask="url(#mask3_164_4080)">
<path d="M593.738 118.636L426.566 70.371C422.321 69.1454 417.886 71.5931 416.661 75.838L337.051 351.576C335.826 355.821 338.273 360.255 342.518 361.481L509.69 409.746C513.935 410.971 518.37 408.524 519.595 404.279L599.205 128.541C600.431 124.296 597.983 119.862 593.738 118.636Z" fill="#30A46C"/>
<path d="M374.504 315.354C399.44 346.328 461.504 337.748 513.129 296.189C564.753 254.63 586.389 195.829 561.453 164.854C536.518 133.88 474.454 142.46 422.829 184.019C371.205 225.578 349.569 284.379 374.504 315.354Z" fill="white" fill-opacity="0.923"/>
</g>
</g>
<path d="M610.538 103.71L420.307 48.7879C412.348 46.4899 404.033 51.0793 401.735 59.0385L315.468 357.834C313.171 365.794 317.76 374.109 325.719 376.407L515.949 431.329C523.908 433.627 532.224 429.037 534.521 421.078L620.788 122.282C623.086 114.323 618.497 106.008 610.538 103.71Z" stroke="#D7DBDF" stroke-width="2"/>
<mask id="mask4_164_4080" style="mask-type:luminance" maskUnits="userSpaceOnUse" x="175" y="1" width="254" height="358">
<path d="M413.708 16.4635L216.265 1.61854C207.453 0.95602 199.773 7.56223 199.11 16.3739L175.793 326.499C175.131 335.31 181.737 342.991 190.549 343.653L387.991 358.498C396.803 359.161 404.483 352.554 405.146 343.743L428.463 33.618C429.126 24.8063 422.519 17.126 413.708 16.4635Z" fill="white"/>
</mask>
<g mask="url(#mask4_164_4080)">
<path d="M413.708 16.4635L216.265 1.61854C207.453 0.95602 199.773 7.56223 199.11 16.3739L175.793 326.499C175.131 335.31 181.737 342.991 190.549 343.653L387.991 358.498C396.803 359.161 404.483 352.554 405.146 343.743L428.463 33.618C429.126 24.8063 422.519 17.126 413.708 16.4635Z" fill="white"/>
<mask id="mask5_164_4080" style="mask-type:luminance" maskUnits="userSpaceOnUse" x="196" y="22" width="212" height="316">
<path d="M400.242 35.5075L226.732 22.462C222.326 22.1307 218.485 25.4338 218.154 29.8397L196.637 316.032C196.305 320.438 199.608 324.278 204.014 324.609L377.525 337.655C381.93 337.986 385.771 334.683 386.102 330.277L407.619 44.0848C407.951 39.679 404.648 35.8388 400.242 35.5075Z" fill="white"/>
</mask>
<g mask="url(#mask5_164_4080)">
<path d="M400.242 35.5075L226.732 22.462C222.326 22.1307 218.485 25.4338 218.154 29.8397L196.637 316.032C196.305 320.438 199.608 324.278 204.014 324.609L377.525 337.655C381.93 337.986 385.771 334.683 386.102 330.277L407.619 44.0848C407.951 39.679 404.648 35.8388 400.242 35.5075Z" fill="#3E63DD"/>
<path d="M225.887 272.914C256.632 298.133 315.628 277.038 357.659 225.796C399.69 174.555 408.84 112.572 378.095 87.3536C347.35 62.135 288.354 83.2305 246.323 134.472C204.292 185.713 195.142 247.696 225.887 272.914Z" fill="white" fill-opacity="0.923"/>
</g>
</g>
<path d="M413.632 17.4606L216.19 2.6157C207.929 1.9946 200.728 8.18792 200.107 16.4489L176.79 326.574C176.169 334.835 182.362 342.035 190.623 342.656L388.066 357.501C396.327 358.122 403.527 351.929 404.149 343.668L427.466 33.543C428.087 25.2821 421.893 18.0817 413.632 17.4606Z" stroke="#D7DBDF" stroke-width="2"/>
</g>
<defs>
<clipPath id="clip0_164_4080">
<rect width="626" height="440" fill="white"/>
</clipPath>
</defs>
</svg>
