<svg width="1615" height="440" viewBox="0 0 1615 440" fill="none" xmlns="http://www.w3.org/2000/svg">
  <g>
    <g>
      <g>
        <path
          d="M203.593 46.4828L15.7712 109.15C7.38898 111.947 2.86102 121.009 5.65779 129.391L104.089 424.404C106.886 432.786 115.948 437.314 124.331 434.517L312.152 371.85C320.534 369.053 325.062 359.991 322.266 351.609L223.834 56.5963C221.037 48.214 211.975 43.6861 203.593 46.4828Z"
          fill="white" />
        <g>
          <path
            d="M198.539 69.2529L33.4843 124.324C29.2932 125.722 27.0292 130.254 28.4276 134.445L119.263 406.691C120.661 410.882 125.193 413.146 129.384 411.747L294.439 356.676C298.63 355.278 300.894 350.747 299.496 346.556L208.66 74.3097C207.262 70.1185 202.73 67.8545 198.539 69.2529Z"
            fill="#E54D2E" />
          <path
            d="M129.563 355.616C167.668 366.983 213.916 324.713 232.86 261.204C251.804 197.695 236.271 136.996 198.165 125.63C160.06 114.263 113.812 156.533 94.8682 220.042C75.9241 283.551 91.4573 344.25 129.563 355.616Z"
            fill="white" fill-opacity="0.923" />
        </g>
      </g>
      <path
        d="M203.909 47.4314L16.0879 110.098C8.22947 112.72 3.9845 121.216 6.60648 129.075L105.038 424.087C107.66 431.945 116.156 436.19 124.014 433.568L311.836 370.901C319.694 368.279 323.939 359.783 321.317 351.925L222.885 56.9128C220.263 49.0544 211.767 44.8094 203.909 47.4314Z"
        stroke="#D7DBDF" stroke-width="2" />
    </g>
    <g>
      <g>
        <path
          d="M610.815 102.749L420.585 47.8271C412.095 45.3759 403.226 50.2713 400.775 58.7611L314.508 357.557C312.057 366.047 316.952 374.916 325.442 377.367L515.672 432.29C524.162 434.741 533.031 429.845 535.482 421.356L621.749 122.56C624.2 114.07 619.305 105.2 610.815 102.749Z"
          fill="white" />
        <g>
          <path
            d="M593.738 118.636L426.566 70.3709C422.321 69.1454 417.886 71.593 416.661 75.8379L337.051 351.576C335.826 355.821 338.273 360.255 342.518 361.481L509.69 409.746C513.935 410.971 518.37 408.524 519.595 404.279L599.205 128.541C600.431 124.296 597.983 119.862 593.738 118.636Z"
            fill="#30A46C" />
          <path
            d="M374.504 315.353C399.44 346.328 461.504 337.748 513.129 296.189C564.753 254.629 586.389 195.829 561.454 164.854C536.518 133.88 474.454 142.46 422.829 184.019C371.205 225.578 349.569 284.379 374.504 315.353Z"
            fill="white" fill-opacity="0.923" />
        </g>
      </g>
      <path
        d="M610.538 103.71L420.307 48.788C412.348 46.49 404.033 51.0794 401.735 59.0386L315.468 357.835C313.171 365.794 317.76 374.109 325.719 376.407L515.949 431.329C523.908 433.627 532.224 429.038 534.521 421.078L620.788 122.282C623.086 114.323 618.497 106.008 610.538 103.71Z"
        stroke="#D7DBDF" stroke-width="2" />
    </g>
    <g>
      <g>
        <path
          d="M413.708 16.4635L216.265 1.61854C207.453 0.956022 199.773 7.56223 199.11 16.3739L175.793 326.499C175.131 335.31 181.737 342.991 190.549 343.653L387.991 358.498C396.803 359.161 404.483 352.554 405.146 343.743L428.463 33.618C429.126 24.8063 422.519 17.126 413.708 16.4635Z"
          fill="white" />
        <g>
          <path
            d="M400.242 35.5076L226.732 22.4621C222.326 22.1308 218.485 25.4339 218.154 29.8398L196.637 316.032C196.305 320.438 199.608 324.278 204.014 324.609L377.525 337.655C381.93 337.986 385.771 334.683 386.102 330.277L407.619 44.0849C407.951 39.6791 404.648 35.8389 400.242 35.5076Z"
            fill="#3E63DD" />
          <path
            d="M225.887 272.915C256.632 298.133 315.628 277.038 357.659 225.796C399.69 174.555 408.84 112.572 378.095 87.3537C347.35 62.1351 288.354 83.2306 246.323 134.472C204.292 185.713 195.142 247.696 225.887 272.915Z"
            fill="white" fill-opacity="0.923" />
        </g>
      </g>
      <path
        d="M413.632 17.4608L216.19 2.61583C207.929 1.99472 200.728 8.18804 200.107 16.449L176.79 326.574C176.169 334.835 182.362 342.035 190.623 342.656L388.066 357.501C396.327 358.122 403.527 351.929 404.149 343.668L427.466 33.5432C428.087 25.2822 421.893 18.0819 413.632 17.4608Z"
        stroke="#D7DBDF" stroke-width="2" />
    </g>
  </g>
  <path
    d="M869.485 154.6L868.845 183.72V245.48C868.845 254.44 871.618 261.373 877.165 266.28C882.712 271.187 889.218 273.64 896.685 273.64C904.152 273.64 910.552 271.187 915.885 266.28C921.432 261.373 924.205 254.44 924.205 245.48V150.12C924.205 140.093 925.485 132.733 928.045 128.04C930.818 123.347 936.685 121 945.645 121H975.085C981.912 121 986.605 123.027 989.165 127.08C994.072 134.333 996.525 162.387 996.525 211.24C996.525 227.24 996.312 239.507 995.885 248.04C995.245 265.32 991.192 280.787 983.725 294.44C976.472 307.88 967.085 318.653 955.565 326.76C932.312 343.187 905.965 351.4 876.525 351.4C837.698 351.4 805.592 342.333 780.205 324.2C767.405 315.027 757.272 302.867 749.805 287.72C742.552 272.36 738.818 254.547 738.605 234.28C738.392 224.253 738.285 209.533 738.285 190.12C738.285 170.493 738.498 156.413 738.925 147.88C739.565 139.133 741.272 132.52 744.045 128.04C747.032 123.347 752.898 121 761.645 121H847.085C855.618 121 861.272 123.24 864.045 127.72C867.672 133.48 869.485 142.44 869.485 154.6ZM1127.65 351.4C1109.3 351.4 1092.13 349.373 1076.13 345.32C1060.34 341.267 1049.14 337.213 1042.53 333.16C1036.13 329.107 1031.86 326.227 1029.73 324.52C1024.18 320.04 1021.41 313.853 1021.41 305.96C1021.41 299.773 1022.16 293.907 1023.65 288.36C1026.42 277.907 1031.44 272.68 1038.69 272.68C1041.04 272.893 1048.5 275.347 1061.09 280.04C1073.89 284.733 1083.92 287.08 1091.17 287.08C1102.05 287.08 1107.49 282.813 1107.49 274.28C1107.49 269.16 1104.82 264.467 1099.49 260.2C1094.16 255.72 1087.65 251.453 1079.97 247.4C1072.5 243.347 1064.93 238.76 1057.25 233.64C1049.57 228.307 1043.06 221.053 1037.73 211.88C1032.4 202.493 1029.73 191.613 1029.73 179.24C1029.73 158.76 1039.76 142.76 1059.81 131.24C1079.86 119.507 1105.78 113.64 1137.57 113.64C1169.36 113.64 1194.53 116.947 1213.09 123.56C1231.86 129.96 1241.25 138.92 1241.25 150.44C1241.25 158.76 1239.33 166.12 1235.49 172.52C1231.65 178.707 1227.6 181.8 1223.33 181.8C1221.84 181.8 1216.82 180.2 1208.29 177C1199.97 173.587 1192.4 171.88 1185.57 171.88C1172.13 171.88 1165.41 177.107 1165.41 187.56C1165.41 192.68 1168.61 197.373 1175.01 201.64C1181.41 205.907 1189.09 210.067 1198.05 214.12C1207.22 217.96 1216.4 222.333 1225.57 227.24C1234.74 232.147 1242.53 238.867 1248.93 247.4C1255.33 255.933 1258.53 266.28 1258.53 278.44C1258.53 290.6 1254.58 301.693 1246.69 311.72C1239.01 321.747 1228.77 329.533 1215.97 335.08C1190.58 345.96 1161.14 351.4 1127.65 351.4ZM1492.64 136.04L1597.28 313C1601.55 320.04 1603.68 326.013 1603.68 330.92C1603.68 335.613 1601.76 339.133 1597.92 341.48C1594.08 343.827 1589.6 345 1584.48 345H1481.44C1470.99 345 1464.27 343.08 1461.28 339.24C1460.43 337.96 1459.25 335.72 1457.76 332.52L1448.48 312.68C1445.71 306.493 1439.2 302.973 1428.96 302.12H1368.48C1364 302.12 1360.59 302.547 1358.24 303.4C1355.89 304.253 1353.97 306.173 1352.48 309.16L1340 335.08C1337.87 338.92 1335.52 341.587 1332.96 343.08C1330.4 344.36 1326.67 345 1321.76 345H1292.96C1284.64 345 1280.16 342.013 1279.52 336.04C1279.31 335.187 1279.2 334.333 1279.2 333.48C1279.2 328.573 1280.8 323.88 1284 319.4L1384.16 142.76C1393.76 126.12 1409.33 117.8 1430.88 117.8H1456.48C1473.55 117.8 1485.6 123.88 1492.64 136.04ZM1388.96 217.96L1374.24 247.08C1373.39 249 1372.96 250.707 1372.96 252.2C1372.96 257.747 1375.63 260.52 1380.96 260.52H1410.08C1414.56 260.52 1417.65 259.453 1419.36 257.32C1421.07 254.973 1421.92 252.947 1421.92 251.24C1421.92 249.533 1421.6 247.827 1420.96 246.12L1408.8 218.6C1406.24 213.053 1402.93 210.28 1398.88 210.28C1394.83 210.28 1391.52 212.84 1388.96 217.96Z"
    fill="#CA3214" />
</svg>